<svg width="110" height="80" viewBox="0 0 124 94" fill="none" xmlns="http://www.w3.org/2000/svg">
<path d="M85.3053 12.6999V1.54297H29.5205L2 27.5759V77.6587H23.5672M29.8921 12.6999V1.54297M85.3057 27.5758H98.4464V37.5829C98.4464 38.8823 97.8476 40.1088 96.8227 40.9084L85.3057 49.8897M91.8756 27.5758V44.7657M29.8931 27.5758H16.7525V37.5829C16.7525 38.8823 17.3512 40.1088 18.3761 40.9084L29.8931 49.8897M23.3223 27.5758V44.7657M45.5879 53.3062H69.6096M49.8916 60.7989H65.3054M49.8916 75.0137H65.3054M85.3045 69.7245H76.2964L73.2728 74.406C72.3669 75.8088 73.374 77.6586 75.0438 77.6586H85.3045M29.8921 69.7245H38.9003L41.9238 74.406C42.8297 75.8088 41.8226 77.6586 40.1528 77.6586H29.8921M8.36329 77.6585V85.9228H24.3966V89.4343C24.3966 90.5991 23.4527 91.543 22.2879 91.543H14.9191C13.761 91.543 12.8194 90.6088 12.8105 89.4499L12.7844 85.9228M35.085 60.7989H41.6966L46.9567 68.6221H68.2397L73.5006 60.7989H80.1122M98.4455 36.1712H105.98C107.712 36.1712 112.252 37.5747 112.252 39.307V84.2279C112.252 85.9595 110.848 87.3638 109.116 87.3638H81.3375M91.6295 56.636H100.271C102.002 56.636 106.543 55.2325 106.543 53.5002V43.9759H92.8879M112.252 43.9759H122.023V51.4176C122.023 52.3837 121.577 53.2964 120.816 53.8899L112.252 60.5692M117.137 43.9759V56.7588M91.6295 63.1093H100.58M91.6295 68.6808H97.3783M91.6295 79.2512H97.3783M112.251 75.318H105.553L103.304 78.799C102.63 79.8426 103.379 81.2171 104.622 81.2171H112.251M108.389 68.6808H103.473L99.5606 74.4988H85.3043M81.0877 85.9231H34.1087C31.7799 85.9231 29.8921 84.0354 29.8921 81.7065V21.2968C29.8921 18.968 35.9972 17.0802 38.3261 17.0802H76.8719C79.2007 17.0802 85.3058 18.968 85.3058 21.2968V81.7058C85.3043 84.0346 83.4165 85.9231 81.0877 85.9231ZM37.5694 27.5758H77.6288V40.384C77.6288 42.7128 71.5237 44.6006 69.1949 44.6006H46.0033C43.6842 44.6006 37.5694 42.7032 37.5694 40.384V27.5758ZM44.8492 91.5422H35.969C34.8042 91.5422 33.8604 90.5983 33.8604 89.4335V85.9221H46.9571V89.4335C46.9571 90.5983 46.0133 91.5422 44.8492 91.5422ZM79.2291 91.5422H70.349C69.1842 91.5422 68.2403 90.5983 68.2403 89.4335V85.9221H81.337V89.4335C81.3378 90.5983 80.3939 91.5422 79.2291 91.5422ZM107.193 91.5425H101.67C100.505 91.5425 99.5616 90.5986 99.5616 89.4338V87.3631H109.301V89.4338C109.301 90.5986 108.357 91.5425 107.193 91.5425Z" stroke="white" stroke-width="3" stroke-miterlimit="10" stroke-linecap="round" stroke-linejoin="round"/>
</svg>
