<svg width="95" height="94" viewBox="0 0 95 94" fill="none" xmlns="http://www.w3.org/2000/svg">
<path d="M62.3898 2H32.1949V32.1949M62.3898 2V32.1949M62.3898 2H92.5847V32.1949M62.3898 32.1949H32.1949M62.3898 32.1949H92.5847M62.3898 32.1949V62.3899M32.1949 32.1949V62.3899M32.1949 32.1949L2 32.1951V62.3899H32.1949M92.5847 32.1949V62.3899H62.3898M62.3898 62.3899H32.1949M42.9082 2V8.57632L45.1003 6.38422L47.2924 8.57632L49.4845 6.38422L51.6766 8.57632V2H42.9082ZM73.1024 2V8.57632L75.2952 6.38422L77.4873 8.57632L79.6794 6.38422L81.8715 8.57632V2H73.1024ZM42.9082 32.1951V38.7714L45.1003 36.5793L47.2924 38.7714L49.4845 36.5793L51.6766 38.7714V32.1951H42.9082ZM12.7133 32.1951V38.7714L14.9054 36.5793L17.0975 38.7714L19.2896 36.5793L21.4817 38.7714V32.1951H12.7133ZM73.1024 32.1951V38.7714L75.2952 36.5793L77.4873 38.7714L79.6794 36.5793L81.8715 38.7714V32.1951H73.1024ZM2 68.382H92.5846V74.3742H2V68.382ZM2 86.0078H92.5846V92H2V86.0078ZM27.8102 74.3736V86.0078H12.7128V74.3736H27.8102ZM81.8714 74.374V86.0081H66.774V74.374H81.8714Z" stroke="white" stroke-width="3" stroke-miterlimit="10" stroke-linecap="round" stroke-linejoin="round"/>
</svg>
