<svg width="108" height="94" viewBox="0 0 108 94" fill="none" xmlns="http://www.w3.org/2000/svg">
<path d="M10.8525 27.8411C9.31199 25.1254 8.39344 21.7029 8.39344 17.9836C8.39344 9.1561 13.5679 2 19.9508 2C26.3338 2 31.5082 9.1561 31.5082 17.9836C31.5082 19.8824 31.2688 21.7039 30.8294 23.3934C29.2262 29.5586 24.9608 33.9672 19.9508 33.9672C19.0193 33.9672 18.1136 33.8148 17.2459 33.5271M75 38V32H54V38M75 38H54M75 38V44M54 38V44M75 44H54M75 44V50M54 44V50M75 50H54M75 50V56M54 50V56M75 56H54M75 56V62M54 56V62M75 62H54M75 62V68M54 62V68M75 68H54M75 68V74M54 68V74M106 68V62H85V68M106 68H85M106 68V74M85 68V74M75 74H54M75 74V80M54 74V80M106 74H85M106 74V80M85 74V80M75 80H54M75 80V86M54 80V86M106 80H85M106 80V86M85 80V86M75 86H54M75 86V92H54V86M106 86H85M106 86V92H85V86M2.58579 36.3322L21.7333 17.1847C22.5144 16.4037 23.7807 16.4037 24.5618 17.1847L43.7093 36.3322C44.0844 36.7073 44.2951 37.216 44.2951 37.7465V90C44.2951 91.1046 43.3997 92 42.2951 92H4C2.89543 92 2 91.1046 2 90V37.7465C2 37.216 2.21071 36.7073 2.58579 36.3322ZM29.0492 33.4754C29.0492 36.7348 26.4069 39.377 23.1475 39.377C19.8882 39.377 17.2459 36.7348 17.2459 33.4754C17.2459 30.216 19.8882 27.5738 23.1475 27.5738C26.4069 27.5738 29.0492 30.216 29.0492 33.4754Z" stroke="#fff" stroke-width="3" stroke-linecap="round" stroke-linejoin="round"/>
</svg>
