<svg width="105" height="94" viewBox="0 0 105 94" fill="none" xmlns="http://www.w3.org/2000/svg">
<path d="M31.5667 53.1253H49.1202M31.5667 53.1253C31.5667 57.8234 27.7587 61.6321 23.0606 61.6321C18.3625 61.6321 14.554 57.8235 14.554 53.1254C14.554 48.4273 18.3625 44.6188 23.0606 44.6188C27.7587 44.6188 31.5667 48.4272 31.5667 53.1253ZM92.5199 37.9674V28.4517H55.5007V32.833C55.5007 34.7273 53.2102 35.6763 51.8704 34.3364L41.0531 23.5191L51.9612 12.611C53.301 11.2711 55.5914 12.2201 55.5914 14.1144V18.8933H92.5206V6.25296C92.5206 3.90404 90.6166 2 88.2677 2H33.2149C32.0865 2 31.0047 2.44788 30.2072 3.24536L3.24611 30.2065C2.44864 31.004 2 32.0858 2 33.2141V48.8718C2 51.2207 3.90404 53.1247 6.25296 53.1247H14.5548M10.0567 23.3948H26.1428C28.4917 23.3948 30.3957 21.4907 30.3957 19.1418V12.3921M55.4999 44.3473H103.153V92H55.4999V44.3473ZM72.4068 44.3473V54.7257L75.8667 51.2665L79.3268 54.7257L82.786 51.2665L86.2459 54.7257V44.3473H72.4068ZM96.7731 83.4933C96.7731 84.6679 95.8208 85.6202 94.6461 85.6202C93.4715 85.6202 92.5193 84.6679 92.5193 83.4933C92.5193 82.3187 93.4715 81.3665 94.6461 81.3665C95.8208 81.3665 96.7731 82.3187 96.7731 83.4933ZM88.2668 83.4933C88.2668 84.6679 87.3145 85.6202 86.1399 85.6202C84.9653 85.6202 84.0131 84.6679 84.0131 83.4933C84.0131 82.3187 84.9653 81.3665 86.1399 81.3665C87.3145 81.3665 88.2668 82.3187 88.2668 83.4933ZM79.7603 83.4933C79.7603 84.6679 78.808 85.6202 77.6333 85.6202C76.4587 85.6202 75.5065 84.6679 75.5065 83.4933C75.5065 82.3187 76.4587 81.3665 77.6333 81.3665C78.808 81.3665 79.7603 82.3187 79.7603 83.4933Z" stroke="#fff" stroke-width="3" stroke-miterlimit="10" stroke-linecap="round" stroke-linejoin="round"/>
</svg>
