<svg width="665" height="120" viewBox="0 0 665 120" fill="none" xmlns="http://www.w3.org/2000/svg">
<path d="M122.018 36.2534C127.457 36.3038 132.272 36.7098 136.902 38.3748C138.586 38.9822 140.185 39.7565 141.626 40.8266C145.432 43.653 146.546 47.5244 144.783 51.9182C143.424 55.3111 141.079 57.9833 138.397 60.3816C132.448 65.6977 125.537 69.4148 118.197 72.3891C106.41 77.1669 94.204 79.9618 81.4254 79.7289C75.8387 79.6282 70.337 78.8697 65.3829 75.9898C60.3502 73.0658 58.9401 68.3761 61.4549 63.1388C62.2512 61.4832 63.2993 59.9976 64.508 58.6191C68.8451 53.6776 74.2335 50.1399 80.0059 47.1498C90.8174 41.5505 102.312 38.1513 114.388 36.7192C117.108 36.395 119.846 36.2503 122.018 36.2534Z" fill="#0563A7"/>
<path d="M206.731 21.7435C203.389 23.0277 200.348 24.2048 197.299 25.363C191.375 27.6103 185.442 29.8355 179.522 32.0954C178.98 32.3031 178.556 32.3598 178.011 32.0891C171.112 28.6584 163.756 26.77 156.158 25.7691C151.928 25.212 147.673 24.9098 143.411 24.6863C139.102 24.4597 134.79 24.359 130.475 24.4377C120.696 24.6171 111.106 26.1247 101.651 28.5545C86.6568 32.4102 72.6098 38.5508 59.2143 46.24C54.9716 48.6761 50.8516 51.3168 46.8355 54.1117C46.3508 54.4485 45.9038 54.9804 45.1484 54.779C51.5786 48.3928 58.824 43.1366 66.6076 38.598C79.8961 30.849 94.0784 25.2371 108.821 20.9661C117.618 18.4167 126.541 16.4306 135.59 15.0552C141.482 14.1582 147.405 13.5035 153.37 13.1793C159.013 12.8709 164.66 12.767 170.287 13.0566C180.57 13.5822 190.733 14.9513 200.433 18.6873C202.514 19.4931 204.553 20.3932 206.731 21.7435Z" fill="#969696"/>
<path d="M159.962 62.4402C157.605 64.8354 154.999 66.9537 152.377 69.0373C141.691 77.5227 129.681 83.6477 117.062 88.6615C105.565 93.2316 93.718 96.634 81.6004 99.089C73.7664 100.675 65.8663 101.83 57.8876 102.46C52.1372 102.913 46.3837 103.24 40.6176 103.115C29.6488 102.875 18.7965 101.764 8.2809 98.3965C5.47968 97.4995 2.74141 96.4294 0 95.076C0.579128 94.5378 1.26527 94.4182 1.88531 94.201C10.4872 91.1889 19.0955 88.1988 27.6974 85.1836C28.3741 84.9475 28.9627 84.9475 29.6111 85.2403C36.7841 88.4758 44.3694 90.0842 52.1435 90.9875C60.308 91.938 68.4944 92.5108 76.7124 92.1678C84.5904 91.8404 92.3677 90.6822 100.044 88.8787C117.585 84.7587 133.926 77.7147 149.459 68.6848C152.972 66.6421 156.361 64.4074 159.805 62.2577C159.858 62.3175 159.909 62.3773 159.962 62.4402Z" fill="#969696"/>
<path d="M564.314 1.14986C564.314 -0.231859 563.964 -0.19409 562.913 0.356711C554.525 4.75997 546.124 9.1349 537.702 13.4689C536.792 13.9347 536.55 14.4824 536.559 15.4549C536.61 20.601 536.585 25.7471 536.588 30.8931C536.591 33.4583 536.588 33.474 534.126 32.5455C523.085 28.3846 511.893 27.6859 500.625 31.403C490.522 34.7361 483.147 41.2324 479.207 51.2318C476.667 57.6809 476.639 64.4196 477.706 71.1771C479.157 80.3739 483.522 87.9026 491.592 92.6395C502.441 99.0067 513.955 98.7203 525.515 94.6224C529.345 93.2658 532.792 91.0437 536.585 88.9098C536.585 90.8328 536.67 92.4978 536.556 94.1471C536.471 95.3683 536.868 95.683 538.064 95.6767C546.32 95.6295 554.579 95.639 562.834 95.6736C563.895 95.6767 564.323 95.4627 564.32 94.2667C564.285 63.2298 564.285 32.1899 564.314 1.14986ZM536.581 61.8796C536.581 66.755 536.581 71.6272 536.581 76.5026C536.581 77.1919 536.635 77.793 535.791 78.2148C529.283 81.4692 522.522 82.574 515.406 80.717C510.895 79.5399 507.959 76.6788 506.649 72.1969C505.101 66.8872 504.903 61.5176 506.489 56.2174C508.528 49.4 513.432 45.7836 520.297 44.6537C525.285 43.8322 530.202 44.361 535.096 45.5098C536.364 45.8088 536.629 46.3816 536.61 47.584C536.541 52.3429 536.581 57.1112 536.581 61.8796Z" fill="#0563A7"/>
<path d="M309.836 51.1406C309.499 40.5872 303.333 32.9673 293.123 30.4399C282.976 27.9283 273.061 28.6899 263.496 33.1215C260.45 34.5316 257.532 36.1808 254.457 37.8899C254.422 37.2101 254.378 36.7411 254.378 36.2753C254.378 25.9296 254.381 15.584 254.384 5.23527C254.384 2.95024 254.035 2.70788 251.879 3.61434C246.85 5.72942 241.817 7.8382 236.809 10.0036C233.432 11.464 229.957 12.6978 226.693 14.4163C226.719 14.9483 226.766 15.4833 226.766 16.0152C226.769 41.8399 226.788 67.6678 226.728 93.4925C226.725 95.1826 227.213 95.5226 228.799 95.51C237.266 95.4439 245.732 95.4974 254.196 95.51C254.246 95.3683 254.296 95.2267 254.344 95.0851C254.29 94.6129 254.189 94.1377 254.189 93.6656C254.183 79.4549 254.183 65.2442 254.192 51.0336C254.192 50.6276 254.032 50.1712 254.413 49.8281C260.915 46.1582 267.821 44.8741 275.136 46.5894C278.368 47.3479 280.407 49.4725 281.163 52.7867C281.748 55.3613 282.006 57.9768 282.025 60.586C282.107 71.7343 282.088 82.8856 282.101 94.037C282.101 94.8899 281.902 95.6925 283.316 95.6831C291.785 95.6233 300.258 95.6422 308.728 95.6705C309.685 95.6736 310.044 95.403 310.034 94.3958C309.915 79.9774 310.295 65.5558 309.836 51.1406Z" fill="#0563A7"/>
<path d="M395.814 34.1852C389.318 31.0849 382.334 30.0557 375.274 29.4766C360.925 28.3026 346.701 29.3979 332.563 31.9788C331.506 32.1708 331.279 32.5642 331.292 33.5305C331.336 37.4963 331.311 41.462 331.311 45.4309C331.311 48.0276 331.729 48.3455 334.253 47.6814C334.565 47.5995 334.87 47.502 335.176 47.4075C345.288 44.3136 355.546 42.4094 366.187 43.6369C369.439 44.0115 372.674 44.4332 375.642 45.9345C377.716 46.9826 379.101 48.6256 379.542 50.9421C379.942 53.0383 379.86 53.0949 377.723 53.2146C368.151 53.7465 358.567 54.1682 349.106 55.849C343.4 56.8624 337.879 58.4487 332.768 61.3286C321.223 67.8375 321.302 83.5369 330.476 90.6596C335.465 94.5309 341.039 96.5893 347.262 97.1433C357.699 98.0718 367.519 96.284 376.489 90.6375C377.42 90.049 378.371 89.4887 379.573 88.7585C379.573 90.8107 379.646 92.4756 379.548 94.1312C379.479 95.3083 379.794 95.6923 381.037 95.686C389.239 95.6294 397.441 95.6357 405.643 95.6829C406.839 95.6892 407.198 95.3493 407.195 94.1406C407.157 79.9898 407.192 65.8389 407.161 51.6881C407.148 43.4355 403.176 37.6977 395.814 34.1852ZM378.509 79.4327C371.711 83.559 364.472 84.2514 356.89 82.2654C354.082 81.5289 352.345 79.7096 351.983 76.7794C351.589 73.5942 352.534 70.9692 355.439 69.2696C358.366 67.5574 361.639 66.9342 364.919 66.5313C369.429 65.9743 373.971 65.6941 378.497 65.2503C379.375 65.1654 379.611 65.4486 379.592 66.2858C379.545 68.2121 379.576 70.1414 379.576 72.0677C379.58 72.0677 379.583 72.0677 379.583 72.0677C379.583 73.8334 379.532 75.6022 379.602 77.368C379.639 78.3248 379.362 78.9165 378.509 79.4327Z" fill="#0563A7"/>
<path d="M664.941 30.9153C656.053 30.8838 647.165 30.8618 638.276 30.8114C637.408 30.8051 637.338 31.2489 637.348 31.9193C637.367 33.5245 637.348 35.1328 637.348 36.7412C637.348 49.5953 637.354 62.4526 637.348 75.3067C637.348 76.018 637.53 76.7388 636.567 77.1794C630.552 79.9365 624.333 81.4158 617.708 80.1789C613.371 79.37 611.111 77.0252 610.252 72.6565C609.827 70.4974 609.679 68.3036 609.669 66.113C609.628 54.436 609.622 42.7591 609.603 31.0852C600.771 31.0601 591.94 31.0506 583.105 30.9908C581.893 30.9814 581.881 31.6455 581.884 32.5236C581.899 40.1247 581.896 47.7257 581.893 55.3268C581.89 62.0151 581.881 68.7034 581.871 75.3917C582.397 85.7215 587.662 92.6427 597.555 95.7146C604.712 97.9367 612.02 97.8895 619.316 96.4952C625.126 95.3842 630.238 92.542 635.33 89.6936C635.96 89.3411 636.504 88.762 637.31 88.784C637.839 90.5056 637.48 92.2682 637.521 94.0087C637.546 95.1261 637.946 95.5038 639.044 95.5006C647.243 95.4723 655.439 95.4691 663.638 95.5006C664.705 95.5038 664.992 95.1072 664.989 94.0843C664.954 73.0216 664.951 51.9685 664.941 30.9153Z" fill="#0563A7"/>
<path d="M460.295 30.7734C452.096 30.8836 443.893 30.8773 435.694 30.7766C434.083 30.7577 433.888 31.3305 433.954 32.6776C434.184 37.3295 434.448 41.9877 434.47 46.6428C434.536 60.6835 434.501 74.7242 434.483 88.7617C434.479 91.6007 434.354 94.4334 433.617 97.2063C432.61 101.005 430.319 103.492 426.422 104.382C423.577 105.031 420.706 105.094 417.798 104.886C414.692 104.666 411.67 103.907 408.576 103.643C407.688 103.567 407.226 103.74 407.245 104.833C407.311 109.012 407.292 113.192 407.254 117.372C407.245 118.241 407.506 118.533 408.394 118.672C412.104 119.254 415.84 119.547 419.583 119.698C426.8 119.991 434.036 120.463 441.19 118.895C444.762 118.112 448.164 116.871 451.343 115.046C458.56 110.901 462.243 104.7 462.23 96.3376C462.215 85.8346 462.227 75.3316 462.227 64.8286C462.23 64.8286 462.23 64.8286 462.233 64.8286C462.233 54.1651 462.202 43.5016 462.268 32.8381C462.271 31.299 462.023 30.7482 460.295 30.7734Z" fill="#0563A7"/>
</svg>
