<svg width="630" height="120" viewBox="0 0 630 120" fill="none" xmlns="http://www.w3.org/2000/svg">
<path fill-rule="evenodd" clip-rule="evenodd" d="M622.473 4.66287C624.079 4.73318 624.671 5.19204 624.845 6.35763C625 7.41961 624.304 8.45193 623.076 8.93297C622.89 9.00671 622.694 9.05137 622.453 9.10631C622.319 9.13684 622.171 9.17053 622.003 9.21415C623.12 10.2946 623.864 11.4233 624.419 12.6888C622.632 13.1883 622.277 13.0661 621.385 11.6526L621.327 11.5603C621.194 11.3513 621.063 11.144 620.941 10.931C620.434 10.0615 619.834 9.23645 618.684 9.49917C617.978 9.66073 617.972 10.2044 617.965 10.741C617.962 10.9786 617.959 11.2149 617.895 11.4159C617.849 11.5628 617.816 11.7138 617.783 11.8611C617.644 12.4927 617.52 13.0554 616.463 12.9293C615.772 12.8479 615.568 12.7183 615.705 12.0264C616.138 9.81363 616.537 7.59717 616.926 5.377C617.03 4.80346 617.263 4.55937 617.881 4.58157C618.603 4.60781 619.327 4.61252 620.052 4.61724C620.859 4.6225 621.667 4.62776 622.473 4.66287ZM619.765 8.09902C620.481 8.12432 621.198 8.14966 621.895 7.96724C622.447 7.82663 622.769 7.37522 622.717 6.79058C622.658 6.19483 622.18 6.05421 621.666 6.03941C621.409 6.03145 621.15 6.03293 620.891 6.03441C620.789 6.03499 620.687 6.03557 620.586 6.03557C620.449 6.03557 620.31 6.02877 620.172 6.02196C619.865 6.00691 619.559 5.99187 619.268 6.05048C618.679 6.17163 618.655 6.60628 618.632 7.03649C618.623 7.19754 618.615 7.35797 618.576 7.50109C618.502 7.77862 618.473 8.08567 618.909 8.08197C619.194 8.0788 619.479 8.08891 619.765 8.09902Z" fill="#0A8049"/>
<path fill-rule="evenodd" clip-rule="evenodd" d="M620.006 0.000126838C615.118 0.0260288 611.141 4.06318 611.148 8.98456C611.155 13.8911 615.185 17.902 620.084 17.8872C625.109 17.8724 629.057 13.9057 629.035 8.90664C629.013 3.91866 625.013 -0.0257751 620.006 0.000126838ZM620.017 16.2629C615.999 16.2333 612.739 12.8994 612.787 8.86983C612.835 4.88462 616.099 1.70227 620.11 1.72447C624.173 1.74667 627.355 4.99557 627.322 9.08438C627.292 13.0548 623.995 16.2925 620.017 16.2629Z" fill="#0A8049"/>
<path d="M223.128 42.0173C223.48 42.7647 223.465 43.2532 222.94 43.923C216.527 52.0673 210.148 60.2414 203.772 68.4116C203.726 68.4702 203.671 68.526 203.616 68.5826C203.425 68.7763 203.225 68.9803 203.328 69.3439L207.678 69.3429C212.971 69.341 218.262 69.3391 223.554 69.3624C224.191 69.3657 224.461 69.0104 224.752 68.6278C224.788 68.5794 224.826 68.5305 224.864 68.4818L230.218 61.634C234.793 55.7823 239.369 49.9303 243.95 44.0822C243.99 44.0315 244.025 43.9728 244.061 43.9126C244.183 43.7091 244.315 43.4895 244.66 43.5124C244.649 43.6254 244.641 43.7371 244.632 43.8476C244.616 44.0626 244.601 44.2742 244.564 44.4817C243.158 52.4151 241.752 60.3485 240.335 68.2819L240.329 68.3158C240.213 68.9592 240.137 69.3844 241.115 69.3735C246.118 69.3217 251.125 69.3329 256.127 69.3699C256.875 69.3773 257.09 69.0887 257.201 68.4337C257.623 65.921 258.068 63.4112 258.514 60.9017L258.677 59.9823C259.242 56.8058 259.81 53.6305 260.385 50.4101L260.438 50.1142C260.848 47.8229 261.262 45.5081 261.682 43.1533C261.775 43.3337 261.858 43.4915 261.933 43.6347C262.087 43.9286 262.21 44.1617 262.322 44.4004L264.39 48.8072L264.394 48.8165L264.41 48.8507C267.459 55.3489 270.509 61.8475 273.548 68.3486C273.833 68.9554 274.074 69.3809 274.914 69.3735C279.893 69.3392 284.871 69.3425 289.852 69.3458H289.86C291.335 69.3468 292.813 69.3477 294.289 69.3477C294.434 69.3477 294.579 69.3344 294.757 69.318C294.86 69.3085 294.975 69.298 295.106 69.2885L294.955 68.9343C294.831 68.6419 294.719 68.3787 294.599 68.1229L292.454 63.5382L292.452 63.5336L292.445 63.5192L292.442 63.5134L292.438 63.5045C289.405 57.0221 286.371 50.5382 283.31 44.0711C282.951 43.3126 282.992 42.8278 283.51 42.1654C288.606 35.6577 293.682 29.1316 298.757 22.6071L301.659 18.8758C302.014 18.4197 302.366 17.9581 302.734 17.4745L302.739 17.4687L303.217 16.8407C303.124 16.8225 303.05 16.8054 302.988 16.7912C302.886 16.7677 302.818 16.7519 302.751 16.7519C301.117 16.751 299.483 16.7512 297.849 16.7515H297.845C292.901 16.7521 287.957 16.7527 283.014 16.7221C282.283 16.7186 281.978 17.1063 281.623 17.5578L281.582 17.6104C275.247 25.714 268.912 33.8175 262.57 41.9174C262.528 41.9706 262.49 42.0289 262.451 42.0885C262.309 42.3063 262.157 42.5402 261.796 42.5984L261.829 42.3864L261.847 42.2709C261.878 42.0631 261.906 41.8775 261.941 41.6918L262.83 36.6824L262.832 36.6687L262.834 36.6613L262.842 36.6166L262.844 36.6021L262.846 36.5917L262.851 36.5643C263.963 30.2997 265.074 24.036 266.211 17.7768C266.366 16.9258 266.229 16.711 265.33 16.7221C260.368 16.7702 255.402 16.7592 250.436 16.7296C249.7 16.7259 249.374 16.9147 249.245 17.6696C248.364 22.8722 247.45 28.0711 246.536 33.27C246.132 35.5684 245.718 37.8668 245.287 40.2578L245.286 40.2622L244.786 43.0385L244.66 42.7864L244.595 42.6556L244.51 42.4875C244.362 42.1936 244.246 41.9645 244.139 41.7325C243.32 39.9739 242.501 38.2154 241.682 36.4569C238.779 30.2232 235.875 23.9882 233.001 17.7398C232.634 16.9442 232.205 16.7112 231.369 16.726C229.118 16.7608 226.867 16.7549 224.616 16.749C223.759 16.7467 222.901 16.7445 222.044 16.7445H211.402C211.481 16.9293 211.553 17.1024 211.621 17.2673C211.753 17.5833 211.873 17.8728 212.002 18.1542L214.235 22.9558L214.239 22.9637L214.242 22.9709C217.197 29.3241 220.151 35.6754 223.128 42.0173Z" fill="#0A8049"/>
<path d="M101.508 80.4671H591.566C593.142 80.4671 593.149 80.4669 592.901 82.0247C592.832 82.4649 592.756 82.9038 592.679 83.3425C592.576 83.9363 592.472 84.5297 592.387 85.1256C592.295 85.7695 592.076 86.1765 591.318 86.0396C591.103 85.9987 590.878 86.009 590.653 86.0193C590.552 86.0239 590.452 86.0286 590.352 86.0286H100.538C99.7614 86.0286 99.3747 86.0286 99.2148 85.8381C99.0564 85.6495 99.1207 85.2739 99.2487 84.5261L99.2506 84.5151C99.2973 84.2448 99.3465 83.9744 99.3956 83.7039C99.5407 82.9054 99.6868 82.1022 99.7723 81.2959C99.8426 80.6114 100.139 80.3855 100.782 80.4632C100.944 80.4834 101.111 80.4778 101.277 80.4722C101.354 80.4697 101.432 80.4671 101.508 80.4671Z" fill="#0A8049"/>
<path d="M303.574 69.3699C309.305 69.3255 315.033 69.3293 320.765 69.3663C321.605 69.37 322.164 69.1184 322.737 68.5004C330.293 60.3746 337.875 52.2745 345.461 44.1746C345.516 44.1156 345.567 44.0498 345.62 43.9829C345.801 43.7517 345.993 43.506 346.375 43.4716C346.369 43.5534 346.365 43.6298 346.361 43.7021C346.353 43.8586 346.346 43.9962 346.323 44.1304L345.64 48.0446L345.638 48.061L345.637 48.0654L345.636 48.0697L345.634 48.0784C344.466 54.7775 343.299 61.4795 342.09 68.1747C341.908 69.1775 342.123 69.381 343.1 69.3699C348.021 69.3255 352.946 69.3366 357.871 69.3625C358.589 69.3662 358.889 69.2257 359.026 68.4227C359.934 63.109 360.876 57.8029 361.819 52.4962L361.82 52.491L361.822 52.4771L361.827 52.4489L361.835 52.4021L361.844 52.3557C362.21 50.2925 362.577 48.2293 362.941 46.1655C364.109 39.558 365.273 32.9505 366.445 26.2971L366.449 26.2778L368.129 16.7446H366.897C365.469 16.7446 364.041 16.7455 362.613 16.7464C358.31 16.7491 354.009 16.7519 349.705 16.7297C348.917 16.726 348.373 16.9517 347.829 17.5364C341.932 23.8805 336.018 30.205 330.102 36.5319L327.426 39.3939C326.679 40.1925 325.927 40.9892 325.126 41.8376L324.069 42.9573C324.085 42.7949 324.096 42.6661 324.104 42.5582C324.118 42.3908 324.127 42.2742 324.147 42.1616L325.034 37.103C326.15 30.734 327.265 24.366 328.406 18.0025C328.58 17.0368 328.443 16.7074 327.344 16.7222C322.463 16.7888 317.579 16.7668 312.695 16.7335C311.91 16.7298 311.596 16.9147 311.451 17.7509C308.55 34.5835 305.62 51.4124 302.652 68.2339C302.497 69.1516 302.6 69.3773 303.574 69.3699Z" fill="#0A8049"/>
<path d="M395.289 55.0237C392.921 63.6602 385.498 69.2883 376.548 69.3438C374.613 69.3554 372.678 69.3525 370.726 69.3497C369.552 69.348 368.372 69.3462 367.182 69.3476C367.396 68.0965 367.609 66.8555 367.821 65.6216C368.357 62.5056 368.884 59.4353 369.399 56.3632C369.51 55.7009 369.824 55.5196 370.457 55.5529C371.208 55.5903 371.961 55.5807 372.714 55.5711C372.93 55.5683 373.146 55.5656 373.362 55.564C376.344 55.5343 378.313 54.0653 379.093 51.1717C380.685 45.2697 382.267 39.3642 383.849 33.4592C385.069 28.9019 386.29 24.3448 387.515 19.7897C387.594 19.4968 387.643 19.1723 387.692 18.8471C387.809 18.0637 387.927 17.2741 388.474 16.9109C388.984 16.5735 389.765 16.6366 390.537 16.6991C390.84 16.7236 391.143 16.748 391.426 16.748C394.997 16.747 398.567 16.7471 402.138 16.7472C411.928 16.7474 421.717 16.7476 431.508 16.7259C432.522 16.7222 432.844 16.7999 432.629 17.9988C430.458 30.0463 428.335 42.1009 426.211 54.157L426.21 54.1655L426.209 54.1708C425.691 57.1107 425.173 60.0506 424.655 62.9905C424.561 63.5218 424.464 64.0529 424.367 64.584C424.124 65.9165 423.881 67.2506 423.685 68.589C423.593 69.2218 423.345 69.3624 422.764 69.3587C417.68 69.3402 412.592 69.3402 407.508 69.3587C406.853 69.3624 406.59 69.281 406.731 68.5003C407.825 62.409 408.909 56.3153 409.994 50.2214L409.996 50.2064L409.999 50.1915C411.257 43.1242 412.515 36.0567 413.787 28.9923C413.954 28.0673 413.85 27.8193 412.87 27.8378C409.802 27.9007 406.734 27.897 403.667 27.8378C402.82 27.8193 402.501 28.082 402.287 28.8887L402.217 29.1538L402.214 29.1655L402.212 29.1702C399.932 37.7933 397.65 46.4227 395.289 55.0237Z" fill="#0A8049"/>
<path d="M157.651 69.344C159.255 69.3452 160.86 69.3465 162.464 69.3465L167.645 69.3453C171.931 69.3438 176.217 69.3422 180.503 69.3502C182.083 69.3539 183.652 69.2799 185.202 68.9838C199.504 66.2641 208.521 54.031 206.875 39.6036C205.48 27.4074 194.927 17.2354 182.682 16.8506C175.597 16.6296 168.503 16.6677 161.409 16.7057C158.049 16.7237 154.689 16.7418 151.33 16.7322C150.716 16.7322 150.508 16.9467 150.408 17.5388C149.89 20.5545 149.35 23.5703 148.762 26.5749C148.573 27.5444 148.718 27.8922 149.831 27.8848C156.848 27.8436 163.865 27.8513 170.881 27.859L174.409 27.8627L174.792 27.8618C175.634 27.8588 176.484 27.8558 177.31 27.981C185.65 29.228 191.004 36.0587 190.401 44.6359C189.872 52.1697 183.097 58.3011 175.163 58.3751C172.889 58.3951 170.614 58.3919 168.338 58.3887C165.974 58.3854 163.605 58.3821 161.239 58.4047C160.336 58.4121 160.17 58.1569 160.325 57.3096C160.664 55.4466 160.988 53.581 161.311 51.7152L161.312 51.7099C161.753 49.1712 162.194 46.6323 162.671 44.0995C162.849 43.1596 162.59 43.0226 161.75 43.0263C156.865 43.0559 151.985 43.0782 147.1 43.0116C146.101 42.9968 145.816 43.3334 145.661 44.2325C144.292 52.2141 142.893 60.1883 141.472 68.1624C141.302 69.0801 141.469 69.3797 142.486 69.3723C147.539 69.3358 152.596 69.3399 157.651 69.344Z" fill="#0A8049"/>
<path d="M587.966 16.7462C593.077 16.7495 598.188 16.7528 603.301 16.7218C604.222 16.7181 604.466 16.9105 604.292 17.8578C602.812 25.9836 601.373 34.117 599.937 42.2502C599.833 42.8312 599.623 43.0717 599.005 43.068C593.92 43.0495 588.832 43.042 583.748 43.0716C582.912 43.079 582.96 42.7015 583.071 42.1021C583.613 39.1275 584.142 36.153 584.672 33.1785C584.898 31.9093 585.124 30.6387 585.351 29.3695L585.352 29.3585C585.487 28.6096 585.554 28.2358 585.398 28.0493C585.242 27.8635 584.864 27.8635 584.111 27.8635C582.69 27.8635 581.269 27.8577 579.848 27.8519C576.587 27.8386 573.325 27.8253 570.065 27.882C561.809 28.0263 555.245 34.7201 555.175 42.9643C555.104 51.3973 562.002 58.3389 570.561 58.3759C578.916 58.4092 587.271 58.402 595.626 58.3613C596.736 58.3539 597.169 58.4278 596.877 59.7599C596.296 62.4106 595.88 65.099 595.464 67.7817L595.36 68.4519C595.249 69.1697 594.979 69.362 594.276 69.362C590.765 69.3531 587.254 69.3614 583.743 69.3696C577.083 69.3853 570.421 69.401 563.763 69.2993C551.567 69.1142 540.64 59.3085 538.882 47.2234C536.755 32.611 546.068 19.6674 560.577 17.0809C562.131 16.8034 563.7 16.733 565.28 16.7367C569.765 16.7478 574.252 16.7464 578.737 16.7451L583.201 16.7441C584.789 16.7441 586.377 16.7452 587.966 16.7462Z" fill="#0A8049"/>
<path d="M485.552 69.3435C486.943 69.3445 488.334 69.3436 489.725 69.3427C493.5 69.3403 497.274 69.3379 501.048 69.3731C501.874 69.3804 501.951 68.9327 502.046 68.3733L502.513 65.7081C503.427 60.4842 504.342 55.2579 505.259 50.0317C505.505 48.6348 505.759 47.2394 506.027 45.7651L506.07 45.533C506.207 44.776 506.349 43.9973 506.495 43.1863C506.621 43.4495 506.727 43.6692 506.82 43.8621C506.973 44.1792 507.091 44.424 507.206 44.6701L510.063 50.7599L510.073 50.781C512.828 56.6516 515.583 62.5221 518.343 68.3927C518.376 68.4616 518.406 68.5326 518.435 68.6033C518.597 68.9881 518.754 69.3651 519.379 69.362C523.862 69.3422 528.343 69.3441 532.912 69.3461L537.119 69.3473C537.028 69.1423 536.951 68.9633 536.881 68.8014C536.76 68.5192 536.661 68.2889 536.552 68.0632C535.663 66.1645 534.773 64.2655 533.884 62.3665C531.036 56.2822 528.187 50.1977 525.311 44.1261C524.934 43.3342 524.963 42.8124 525.481 42.0835C531.139 34.0872 536.756 26.0614 542.373 18.0355C542.434 17.9486 542.504 17.8654 542.576 17.7809C542.81 17.5056 543.055 17.2169 543.009 16.7441L538.968 16.7453C534.454 16.7472 529.951 16.7491 525.448 16.7292C524.873 16.7261 524.655 17.0713 524.432 17.4222C524.388 17.4917 524.344 17.5613 524.297 17.6285C521.551 21.5383 518.806 25.449 516.061 29.3597C513.317 33.2695 510.573 37.1793 507.827 41.0882C507.638 41.3596 507.444 41.6271 507.244 41.9018L507.239 41.9081C507.109 42.0875 506.974 42.2722 506.839 42.4611C506.615 42.1688 506.671 41.9261 506.721 41.7089C506.73 41.6677 506.74 41.6273 506.747 41.5878L507.332 38.2747C508.538 31.4451 509.745 24.6137 510.987 17.7911C511.154 16.8809 510.913 16.7182 510.058 16.7256C505.096 16.7589 500.131 16.7551 495.169 16.7292C494.44 16.7255 494.155 16.8848 494.021 17.6766C493.059 23.2925 492.062 28.8999 491.066 34.5085L491.064 34.519L491.062 34.5295L491.054 34.5752C490.737 36.3611 490.419 38.1472 490.103 39.9337C488.83 47.1359 487.561 54.3382 486.289 61.5599L484.934 69.2547C485.012 69.2661 485.086 69.28 485.158 69.2935C485.296 69.3194 485.425 69.3435 485.552 69.3435Z" fill="#0A8049"/>
<path d="M436.434 69.3503C434.788 69.3503 433.141 69.3504 431.424 69.3652L432.128 65.3396C433.018 60.2555 433.896 55.2339 434.784 50.2124C435.406 46.6843 436.03 43.157 436.655 39.6299L436.657 39.618L436.667 39.5588L436.674 39.5234L436.677 39.5028L436.681 39.4793L436.691 39.4263L436.701 39.3674L436.712 39.3052L436.724 39.2398C438 32.0284 439.277 24.8176 440.534 17.6019C440.649 16.9395 440.86 16.747 441.515 16.747C451.946 16.7576 462.378 16.7588 472.81 16.76L485.219 16.7619C485.35 16.7619 485.483 16.7842 485.63 16.809C485.699 16.8205 485.771 16.8326 485.848 16.8432C485.678 17.7792 485.506 18.7111 485.335 19.6406L485.332 19.655L485.329 19.6701L485.327 19.6808C484.883 22.0854 484.442 24.4735 484.057 26.8711C483.909 27.7999 483.472 27.885 482.695 27.8813C479.048 27.8702 475.4 27.8693 471.753 27.8683C466.886 27.8671 462.019 27.8658 457.152 27.8404C456.094 27.833 455.605 28.0107 455.45 29.1874C455.174 31.2742 454.768 33.342 454.361 35.4094L454.158 36.4436C453.992 37.2984 454.225 37.5464 455.109 37.539C458.093 37.52 461.077 37.5195 464.061 37.519C466.888 37.5186 469.716 37.5181 472.542 37.5019C473.407 37.4982 473.74 37.5944 473.544 38.6009C472.96 41.6055 472.471 44.6286 471.986 47.6517C471.868 48.3881 471.565 48.6101 470.813 48.6064C468.146 48.5913 465.48 48.5907 462.814 48.59C459.588 48.5893 456.363 48.5885 453.137 48.5621C452.212 48.5547 451.894 48.8581 451.764 49.7203C451.398 52.1921 450.995 54.6601 450.532 57.1134C450.347 58.1014 450.547 58.4159 451.624 58.4122C455.711 58.3909 459.798 58.3901 463.885 58.3893C468.312 58.3884 472.74 58.3875 477.167 58.3605C478.292 58.3531 478.517 58.6306 478.307 59.6926C477.737 62.5788 477.208 65.4723 476.782 68.3807C476.638 69.3613 476.153 69.3613 475.417 69.3613C464.608 69.349 453.802 69.3495 442.994 69.35L436.434 69.3503Z" fill="#0A8049"/>
<path d="M260.404 94.2136C258.428 94.2654 256.452 94.2581 254.477 94.2174C253.81 94.2026 253.374 94.4097 252.945 94.9277C250.695 97.6333 248.425 100.322 246.155 103.012C245.407 103.897 244.659 104.783 243.912 105.67C243.444 106.223 242.974 106.775 242.483 107.351L241.766 108.193C241.636 107.704 241.75 107.364 241.858 107.043L241.887 106.954C241.898 106.922 241.908 106.89 241.918 106.857C243.054 102.991 243.89 99.0573 244.719 95.1165C244.867 94.4172 244.811 94.2026 244.049 94.2174C241.951 94.2581 239.853 94.2506 237.755 94.221C237.144 94.2136 236.956 94.4283 236.83 95.0203C235.18 102.817 233.5 110.61 231.812 118.399C231.661 119.102 231.76 119.424 232.6 119.398C234.536 119.342 236.475 119.35 238.41 119.398C239.087 119.413 239.531 119.187 239.949 118.672C241.093 117.278 242.257 115.9 243.42 114.524C243.765 114.115 244.111 113.705 244.456 113.296C245.544 112.006 246.633 110.717 247.722 109.427C248.811 108.138 249.899 106.848 250.987 105.559C251.069 105.6 251.146 105.64 251.228 105.685C251.209 105.778 251.191 105.873 251.174 105.968C251.135 106.184 251.096 106.401 251.032 106.61C249.923 110.319 249.12 114.1 248.316 117.886L248.168 118.584C248.012 119.305 248.205 119.401 248.834 119.394C250.932 119.368 253.03 119.368 255.128 119.394C255.727 119.401 255.942 119.205 256.068 118.606C257.722 110.769 259.405 102.939 261.1 95.1091C261.244 94.4504 261.167 94.1951 260.404 94.2136Z" fill="#0A8049"/>
<path fill-rule="evenodd" clip-rule="evenodd" d="M546.898 94.2733C548.356 94.2881 549.788 94.5324 551.157 95.0504C553.658 95.994 554.643 97.9403 554.01 100.545C553.418 102.969 551.819 104.608 549.736 105.996C552.507 107.38 553.314 109.604 552.348 112.919C551.686 115.191 550.195 116.741 548.115 117.781C545.595 119.039 542.876 119.335 540.123 119.369C538.422 119.387 536.722 119.384 535.021 119.38C532.97 119.376 530.918 119.371 528.866 119.406C527.864 119.424 527.867 119.032 528.03 118.281C528.913 114.212 529.787 110.141 530.661 106.07L530.691 105.929C531.294 103.119 531.898 100.309 532.504 97.4999C532.57 97.1954 532.612 96.8616 532.655 96.5264C532.759 95.7009 532.864 94.8673 533.333 94.4435C533.856 93.973 534.716 94.0694 535.572 94.1652C535.927 94.205 536.282 94.2448 536.611 94.2437C540.038 94.2289 543.468 94.24 546.898 94.2733ZM540.809 113.466C541.706 113.465 542.693 113.465 543.616 112.986C544.648 112.449 545.177 111.424 544.992 110.284C544.811 109.2 543.938 109.067 543.09 108.982C542.173 108.886 541.248 108.849 540.326 108.838C538.316 108.816 538.313 108.83 537.893 110.845L537.891 110.854C537.344 113.478 537.344 113.478 540.134 113.474C540.351 113.466 540.577 113.466 540.809 113.466ZM543.464 104.186C544.6 104.035 545.525 103.513 545.932 102.358C546.365 101.134 545.962 100.383 544.681 100.186C543.999 100.079 543.296 100.081 542.598 100.083C542.452 100.083 542.307 100.083 542.161 100.083C540.213 100.072 540.211 100.079 539.776 101.991L539.775 101.996C539.261 104.249 539.26 104.249 541.54 104.201L541.639 104.202L541.754 104.204L541.902 104.207L542.143 104.215C542.587 104.23 543.031 104.245 543.464 104.186Z" fill="#0A8049"/>
<path d="M190.662 94.2139C188.604 94.2805 186.547 94.2584 184.49 94.2214C183.783 94.2103 183.435 94.3361 183.287 95.1464C182.932 97.1149 182.49 99.0649 182.048 101.016L182.047 101.021L181.8 102.118C181.785 102.182 181.775 102.25 181.765 102.318C181.716 102.654 181.665 103.004 181.078 102.995C179.355 102.968 177.633 102.972 175.885 102.977C175.222 102.978 174.556 102.98 173.885 102.98C173.907 102.839 173.926 102.712 173.943 102.593C173.97 102.402 173.995 102.232 174.029 102.066L174.214 101.201C174.64 99.2063 175.067 97.207 175.516 95.2167C175.664 94.5617 175.694 94.1844 174.795 94.2103C172.781 94.2685 170.76 94.2474 168.742 94.2264L168.257 94.2214C167.698 94.2177 167.435 94.3398 167.302 94.9725C165.652 102.817 163.964 110.651 162.269 118.484C162.125 119.154 162.229 119.405 162.984 119.391C165.122 119.346 167.261 119.343 169.4 119.391C170.184 119.409 170.41 119.109 170.551 118.384C170.838 116.928 171.153 115.477 171.467 114.025C171.783 112.564 172.1 111.102 172.39 109.633C172.523 108.959 172.793 108.797 173.422 108.804L174.036 108.815C175.768 108.847 177.504 108.878 179.232 108.786C180.327 108.726 180.308 109.181 180.131 109.981C179.805 111.444 179.489 112.91 179.173 114.377C178.887 115.706 178.6 117.035 178.306 118.362C178.158 119.032 178.188 119.409 179.061 119.387C181.2 119.332 183.339 119.343 185.478 119.383C186.199 119.398 186.443 119.143 186.558 118.447C186.695 117.608 186.889 116.777 187.082 115.946L187.083 115.942C187.182 115.518 187.281 115.094 187.372 114.669C187.724 113.03 188.074 111.39 188.425 109.75C189.455 104.932 190.486 100.113 191.535 95.2982C191.724 94.4804 191.591 94.1843 190.662 94.2139Z" fill="#0A8049"/>
<path fill-rule="evenodd" clip-rule="evenodd" d="M290.19 94.2261C291.817 94.2309 293.443 94.2358 295.07 94.2165C295.978 94.204 295.849 94.6626 295.729 95.0907L295.703 95.1845C295.69 95.2316 295.678 95.2779 295.669 95.3227C294.522 100.724 293.362 106.125 292.201 111.527L291.495 114.816C291.417 115.176 291.335 115.537 291.253 115.897C291.049 116.794 290.845 117.692 290.692 118.598C290.589 119.208 290.341 119.4 289.745 119.393C287.565 119.367 285.386 119.349 283.207 119.401C282.315 119.419 282.326 119.016 282.474 118.365L282.6 117.803C283.036 115.867 283.472 113.931 283.839 111.985C283.86 111.875 283.916 111.742 283.975 111.603C284.141 111.214 284.326 110.78 283.78 110.668L283.714 110.654C283.651 110.641 283.587 110.626 283.522 110.612C282.829 110.455 281.997 110.268 281.449 111.071C280.998 111.732 280.563 112.404 280.128 113.075C279.927 113.384 279.727 113.694 279.525 114.002L278.938 114.899C278.119 116.15 277.299 117.404 276.487 118.66C276.213 119.079 275.961 119.4 275.362 119.393C273.453 119.369 271.541 119.372 269.503 119.376C268.749 119.377 267.976 119.378 267.181 119.378L268.589 117.461C269.613 116.068 270.581 114.75 271.551 113.432L274.059 110.02C274.083 109.988 274.108 109.957 274.132 109.926C274.325 109.681 274.49 109.472 274.03 109.177C270.899 107.167 269.989 101.976 273.275 98.1388C275.562 95.4746 278.651 94.4458 281.997 94.3163C284.725 94.2096 287.457 94.2178 290.19 94.2261ZM285.775 103.03C285.93 102.283 286.089 101.539 286.259 100.795C286.367 100.326 286.326 100.041 285.712 100.074C285.266 100.092 284.818 100.085 284.37 100.078C283.731 100.069 283.092 100.059 282.459 100.122C280.994 100.266 279.725 100.818 279.195 102.372C278.74 103.711 279.21 104.592 280.576 104.892C281.438 105.08 282.326 105.147 283.07 105.099C285.338 105.099 285.338 105.099 285.772 103.04L285.775 103.03Z" fill="#0A8049"/>
<path d="M344.817 94.2098C343.507 94.158 342.563 94.5649 341.62 95.4678C339.956 97.0658 338.236 98.6062 336.517 100.147C335.811 100.779 335.106 101.411 334.404 102.047C334.326 101.991 334.249 101.94 334.171 101.884L334.523 100.253C334.889 98.558 335.254 96.864 335.632 95.1719C335.766 94.5762 335.799 94.2024 334.963 94.2209C332.746 94.2727 330.526 94.2578 328.306 94.2245C327.677 94.2134 327.496 94.4577 327.396 95.0387C327.249 95.8906 327.059 96.7354 326.868 97.5805L326.867 97.5854C326.783 97.9573 326.699 98.3293 326.619 98.7019C326.216 100.573 325.814 102.444 325.413 104.315L325.405 104.35L325.394 104.4L325.388 104.429L325.387 104.433C324.395 109.056 323.402 113.681 322.397 118.299C322.226 119.087 322.293 119.442 323.259 119.405C325.312 119.331 327.373 119.342 329.431 119.401C330.252 119.423 330.53 119.139 330.667 118.347C330.8 117.579 330.979 116.819 331.159 116.058L331.16 116.054C331.378 115.129 331.596 114.203 331.732 113.266C331.932 111.893 332.558 110.928 333.616 110.076C334.352 109.484 334.611 109.418 334.966 110.395C335.723 112.469 336.535 114.525 337.348 116.58C337.601 117.22 337.853 117.859 338.104 118.498C338.131 118.566 338.153 118.637 338.176 118.709C338.283 119.046 338.392 119.387 338.911 119.387C341.113 119.379 343.317 119.38 345.565 119.382L348.284 119.383L348.178 119.118L348.07 118.842C347.935 118.498 347.818 118.201 347.692 117.91C347.248 116.887 346.805 115.863 346.363 114.839C344.889 111.431 343.415 108.022 341.904 104.634C341.579 103.905 341.668 103.523 342.267 103.031C345.162 100.635 348.027 98.2031 350.891 95.772L351.336 95.3939C351.418 95.3248 351.504 95.2589 351.591 95.1918C351.901 94.9539 352.228 94.702 352.439 94.243C351.597 94.2406 350.768 94.2459 349.949 94.251C348.21 94.262 346.512 94.2727 344.817 94.2098Z" fill="#0A8049"/>
<path d="M433.372 94.22C439.581 94.2422 445.794 94.2422 452.006 94.22C452.728 94.2163 453.02 94.294 452.787 95.1451C452.417 96.4587 452.173 97.8131 451.936 99.16C451.81 99.8852 451.496 100.111 450.745 100.1C449.087 100.076 447.428 100.078 445.771 100.08C443.999 100.082 442.228 100.084 440.458 100.055C439.636 100.041 439.385 100.314 439.222 101.076L439.201 101.176C438.936 102.426 438.803 103.055 439.058 103.372C439.316 103.693 439.974 103.693 441.298 103.693H441.32C441.947 103.693 442.574 103.694 443.201 103.696C444.832 103.699 446.465 103.703 448.095 103.682C448.783 103.674 449.127 103.704 448.876 104.581C448.552 105.715 448.34 106.885 448.127 108.053L448.028 108.596C447.899 109.284 447.633 109.573 446.855 109.558C445.444 109.53 444.032 109.533 442.621 109.535C441.209 109.538 439.797 109.541 438.386 109.513C437.62 109.498 437.349 109.769 437.201 110.468L437.189 110.525C436.875 112.001 436.718 112.738 437.017 113.106C437.314 113.473 438.064 113.473 439.562 113.473H439.573C440.367 113.473 441.161 113.475 441.955 113.478C443.984 113.485 446.014 113.491 448.043 113.454C449.002 113.439 449.464 113.517 449.102 114.671C448.769 115.74 448.577 116.854 448.386 117.964L448.302 118.449C448.177 119.175 447.855 119.411 447.1 119.4C444.771 119.368 442.443 119.373 440.114 119.378C439.257 119.38 438.399 119.382 437.542 119.382C436.682 119.382 435.823 119.379 434.963 119.377C432.675 119.37 430.389 119.364 428.102 119.404C427.2 119.419 427.114 119.104 427.277 118.361C428.957 110.612 430.633 102.86 432.265 95.1006C432.417 94.3716 432.695 94.2163 433.372 94.22Z" fill="#0A8049"/>
<path d="M481.758 94.2952C479.06 93.4145 476.292 93.2626 473.521 93.9175C465.491 95.8195 459.978 103.686 460.958 111.89C461.395 115.538 463.367 118.04 466.883 119.272C468.984 120.008 471.145 120.082 473.332 119.942C478.775 119.594 483.919 115.66 485.735 110.51C485.98 109.821 485.917 109.57 485.125 109.585C483.19 109.618 481.251 109.629 479.315 109.581C478.501 109.559 478.028 109.744 477.687 110.576C476.995 112.267 475.748 113.429 473.891 113.807C471.286 114.332 469.273 113.044 469.166 110.68C469.032 107.712 469.732 104.922 471.282 102.373C471.948 101.281 472.844 100.426 474.08 99.9861C476.388 99.1609 478.568 100.053 479.182 101.995C479.252 102.214 479.238 102.47 479.226 102.72C479.204 103.15 479.183 103.563 479.586 103.738C479.992 103.915 480.493 103.88 480.993 103.845C481.203 103.83 481.414 103.815 481.617 103.816C481.968 103.818 482.318 103.818 482.668 103.817L483.19 103.816C483.496 103.816 483.803 103.814 484.109 103.812C484.852 103.806 485.594 103.801 486.339 103.827C486.89 103.846 487.086 103.675 487.164 103.102C487.719 99.1055 485.584 95.5422 481.758 94.2952Z" fill="#0A8049"/>
<path fill-rule="evenodd" clip-rule="evenodd" d="M110.893 94.2484C112.523 94.2197 114.278 94.1889 116.023 94.5012C120.518 95.3041 122.524 98.1867 121.68 102.679C120.722 107.785 116.648 111.156 110.998 111.456C109.347 111.545 107.69 111.548 106.036 111.497C105.303 111.471 105.048 111.752 104.918 112.403C104.745 113.276 104.559 114.146 104.373 115.016C104.129 116.154 103.885 117.293 103.671 118.438C103.534 119.175 103.238 119.423 102.476 119.404C100.608 119.359 98.7345 119.373 96.8628 119.387L96.0596 119.393C95.4787 119.397 95.2011 119.367 95.3676 118.601C97.0846 110.731 98.7682 102.853 100.422 94.9675C100.555 94.3311 100.833 94.2237 101.388 94.2311C102.952 94.2443 104.515 94.2424 106.247 94.2402C106.928 94.2394 107.638 94.2385 108.382 94.2385C109.168 94.2787 110.012 94.2639 110.893 94.2484ZM110.198 105.643C111.32 105.561 112.322 105.169 113.073 104.307C114.546 102.616 113.917 100.736 111.738 100.233C111.295 100.132 110.846 100.126 110.399 100.121C110.044 100.116 109.689 100.112 109.34 100.059C107.974 99.8518 107.249 100.277 107.212 101.746C107.2 102.131 107.094 102.515 106.989 102.899C106.933 103.101 106.877 103.305 106.835 103.508C106.394 105.658 106.394 105.661 108.629 105.65C108.791 105.65 108.953 105.653 109.114 105.656C109.476 105.662 109.837 105.668 110.198 105.643Z" fill="#0A8049"/>
<path fill-rule="evenodd" clip-rule="evenodd" d="M81.3253 95.1386C81.2291 94.4651 81.0071 94.1914 80.2596 94.2099C78.0432 94.2691 75.8193 94.2654 73.6028 94.2099C72.9183 94.1951 72.6111 94.4727 72.3077 95.0166C71.4533 96.5509 70.5761 98.0739 69.6993 99.5963C69.3501 100.203 68.9994 100.811 68.6518 101.418C67.875 102.776 67.0987 104.134 66.3226 105.492L66.3139 105.507C63.8545 109.809 61.3947 114.113 58.9164 118.406C58.465 119.187 58.5427 119.431 59.4863 119.394C59.6833 119.386 59.8809 119.377 60.0788 119.368C61.2559 119.314 62.4442 119.26 63.5972 119.412C65.7323 119.694 67.1458 119.05 67.7157 116.889C67.897 116.204 68.3595 116.008 69.0662 116.034C70.1607 116.074 71.257 116.066 72.3526 116.059C72.79 116.056 73.2288 116.053 73.6657 116.053H73.6772C76.2782 116.053 76.308 116.053 76.5149 118.598C76.5667 119.257 76.811 119.409 77.403 119.39C78.179 119.367 78.9568 119.371 79.7339 119.376H79.7381C80.049 119.377 80.3598 119.379 80.6703 119.379C80.996 119.379 81.322 119.377 81.6481 119.375C82.4111 119.371 83.1758 119.366 83.9377 119.387C84.5298 119.401 84.8184 119.309 84.7111 118.591C83.5677 110.78 82.4428 102.961 81.3253 95.1386ZM72.3336 110.781C71.8542 110.782 71.3565 110.783 70.8424 110.783C72.3262 107.771 73.7028 104.974 75.2458 101.836C75.3274 102.735 75.405 103.601 75.4806 104.445L75.4947 104.604C75.6673 106.533 75.8299 108.348 76.0043 110.158C76.0524 110.654 75.8637 110.795 75.4049 110.787C74.4074 110.777 73.4081 110.779 72.338 110.781H72.3336Z" fill="#0A8049"/>
<path fill-rule="evenodd" clip-rule="evenodd" d="M378.817 94.2209C379.464 94.2098 379.705 94.391 379.801 95.0719C380.885 102.735 381.995 110.391 383.142 118.051C383.298 119.083 383.135 119.479 381.969 119.416C380.038 119.309 378.095 119.349 376.16 119.405C375.349 119.427 375.031 119.205 374.972 118.358C374.813 116.06 374.776 116.06 372.426 116.06H372.415C371.939 116.06 371.462 116.063 370.987 116.066C369.848 116.074 368.709 116.082 367.571 116.045C366.868 116.023 366.398 116.197 366.21 116.9C365.632 119.035 364.249 119.697 362.102 119.427C361.035 119.292 359.946 119.324 358.858 119.355C358.366 119.37 357.874 119.384 357.385 119.383C357.339 119.383 357.294 119.374 357.216 119.359C357.158 119.348 357.083 119.333 356.977 119.316C357.048 119.178 357.111 119.051 357.17 118.931C357.292 118.686 357.397 118.473 357.514 118.269C358.681 116.228 359.849 114.189 361.018 112.149C364.254 106.499 367.49 100.849 370.698 95.183C371.124 94.4355 371.583 94.1988 372.4 94.2173C374.539 94.2691 376.678 94.2542 378.817 94.2209ZM369.333 110.783H373.769L373.843 110.784C374.188 110.787 374.513 110.789 374.465 110.247C374.309 108.451 374.159 106.654 374.009 104.856C373.936 103.975 373.862 103.094 373.788 102.213C373.714 102.206 373.64 102.195 373.566 102.184C372.77 103.803 371.973 105.422 371.157 107.079L371.148 107.098L369.333 110.783Z" fill="#0A8049"/>
<path fill-rule="evenodd" clip-rule="evenodd" d="M148.231 95.2898C148.12 94.5053 147.898 94.1574 147.05 94.213C146.291 94.2648 145.527 94.2531 144.763 94.2415C144.436 94.2365 144.109 94.2315 143.783 94.2315C143.47 94.2315 143.157 94.2361 142.844 94.2407C142.106 94.2515 141.37 94.2623 140.638 94.213C139.886 94.1648 139.502 94.4499 139.139 95.0938C137.477 98.0462 135.79 100.987 134.104 103.926L134.102 103.931L134.093 103.946C133.419 105.122 132.744 106.298 132.071 107.475C131.494 108.484 130.919 109.494 130.344 110.504L130.342 110.508C128.845 113.136 127.348 115.765 125.822 118.376C125.296 119.271 125.522 119.427 126.443 119.39C126.675 119.381 126.908 119.37 127.142 119.358C128.245 119.306 129.357 119.253 130.432 119.412C132.641 119.741 134.047 119.016 134.636 116.829C134.813 116.174 135.239 116.011 135.898 116.03C137.072 116.064 138.247 116.057 139.421 116.05C139.901 116.047 140.38 116.045 140.86 116.045C143.232 116.045 143.276 116.045 143.376 118.417C143.413 119.253 143.742 119.405 144.479 119.39C146.536 119.349 148.597 119.327 150.651 119.397C151.62 119.43 151.668 119.053 151.553 118.257C150.421 110.609 149.311 102.953 148.231 95.2898ZM142.318 110.79C141.274 110.774 140.231 110.777 139.147 110.78C138.701 110.782 138.248 110.783 137.785 110.783C137.818 110.7 137.847 110.625 137.874 110.555L137.912 110.457C137.98 110.278 138.034 110.137 138.099 110.002C138.866 108.443 139.636 106.887 140.439 105.264C140.984 104.163 141.544 103.031 142.129 101.847L142.258 103.302C142.473 105.712 142.669 107.923 142.876 110.132C142.917 110.576 142.825 110.798 142.318 110.79Z" fill="#0A8049"/>
<path fill-rule="evenodd" clip-rule="evenodd" d="M585.025 106.757C585.233 108.197 585.441 109.638 585.648 111.079C585.748 111.776 585.846 112.474 585.943 113.173L585.946 113.193C586.193 114.963 586.441 116.735 586.732 118.502C586.854 119.231 586.699 119.412 585.985 119.401C583.809 119.368 581.629 119.368 579.45 119.401C578.839 119.409 578.64 119.231 578.58 118.602C578.34 116.06 578.314 116.06 575.735 116.06H575.724C575.286 116.06 574.848 116.063 574.411 116.066C573.315 116.073 572.219 116.081 571.124 116.041C570.421 116.015 569.94 116.197 569.763 116.889C569.2 119.057 567.794 119.679 565.655 119.423C564.588 119.294 563.504 119.325 562.42 119.356C561.925 119.37 561.43 119.384 560.937 119.383C560.887 119.383 560.836 119.375 560.766 119.365C560.727 119.359 560.683 119.352 560.63 119.346C560.642 118.938 560.82 118.664 560.992 118.401C561.04 118.327 561.087 118.255 561.13 118.18C562.393 115.969 563.657 113.758 564.921 111.548L565.015 111.384L565.038 111.344L565.045 111.332L565.05 111.322L565.055 111.314L565.058 111.309C568.127 105.943 571.196 100.577 574.244 95.1976C574.654 94.4686 575.098 94.1913 575.931 94.2172C577.988 94.2764 580.046 94.28 582.103 94.2134C582.954 94.1837 583.28 94.4095 583.398 95.2827C583.92 99.1099 584.472 102.933 585.025 106.757ZM573.663 110.783H577.404C577.792 110.787 578.103 110.78 578.044 110.21C577.869 108.386 577.713 106.563 577.557 104.739L577.556 104.722C577.485 103.891 577.414 103.059 577.341 102.228C577.271 102.206 577.2 102.188 577.13 102.169C575.813 104.852 574.495 107.531 573.171 110.21C572.886 110.787 573.246 110.785 573.607 110.783L573.663 110.783Z" fill="#0A8049"/>
<path d="M419.139 94.2162C416.96 94.2532 414.78 94.2752 412.605 94.2049C411.824 94.179 411.657 94.5564 411.539 95.1595C411.199 96.858 410.847 98.5528 410.477 100.244C409.759 103.53 409.755 103.53 406.384 103.604C403.794 103.663 403.036 102.734 403.587 100.181L403.805 99.1694C404.089 97.853 404.372 96.5379 404.69 95.23C404.882 94.4344 404.679 94.1607 403.839 94.2162C403.113 94.2625 402.382 94.2515 401.652 94.2405C401.333 94.2357 401.011 94.2308 400.693 94.2308C400.368 94.2308 400.042 94.2328 399.716 94.2348C398.953 94.2395 398.188 94.2441 397.426 94.2234C396.856 94.2086 396.586 94.3493 396.46 94.982C396.226 96.175 395.963 97.3613 395.699 98.5477C395.412 99.8377 395.125 101.128 394.877 102.427C394.192 106.02 396.105 108.836 399.717 109.535C402.281 110.035 404.875 109.835 407.417 109.402C408.575 109.204 408.488 109.602 408.317 110.379L408.312 110.401C408.087 111.427 407.87 112.454 407.654 113.481L407.653 113.487C407.306 115.137 406.958 116.786 406.573 118.427C406.388 119.204 406.518 119.411 407.317 119.397C409.456 119.352 411.594 119.345 413.73 119.404C414.466 119.426 414.699 119.145 414.836 118.494C416.479 110.693 418.133 102.893 419.82 95.1042C419.972 94.3863 419.872 94.2051 419.139 94.2162Z" fill="#0A8049"/>
<path d="M203.574 94.2274C210.76 94.2385 217.943 94.242 225.129 94.2235C225.787 94.2198 225.854 94.4863 225.739 95.0117L225.577 95.7379C225.295 96.9901 225.015 98.2418 224.788 99.5038C224.684 100.097 224.337 100.085 223.966 100.073C223.914 100.072 223.861 100.07 223.808 100.07C223.552 100.071 223.297 100.073 223.042 100.075L222.448 100.08C221.045 100.092 219.64 100.105 218.239 100.052C217.402 100.022 217.162 100.344 217.006 101.099C216.389 104.072 215.757 107.04 215.125 110.009L215.124 110.013C214.54 112.755 213.956 115.498 213.384 118.242C213.21 119.067 212.932 119.445 211.989 119.404C209.932 119.315 207.87 119.348 205.813 119.393C205.025 119.411 204.888 119.237 205.062 118.438C206.09 113.752 207.086 109.054 208.097 104.278C208.392 102.885 208.689 101.486 208.988 100.077C208.35 100.077 207.722 100.075 207.1 100.073C205.57 100.067 204.075 100.061 202.586 100.092C201.85 100.111 201.565 99.9738 201.765 99.1746C202.117 97.7684 202.431 96.3476 202.686 94.923C202.79 94.342 203.053 94.2274 203.574 94.2274Z" fill="#0A8049"/>
<path d="M521.221 94.2199C514.079 94.2495 506.934 94.242 499.793 94.2235C499.182 94.2235 498.979 94.4198 498.868 95.0156C498.645 96.2189 498.378 97.4125 498.101 98.6484C497.996 99.1183 497.889 99.5961 497.783 100.081H503.774C505.195 100.081 505.195 100.081 504.895 101.48L504.888 101.513C504.547 103.104 504.209 104.696 503.87 106.287C503.011 110.328 502.152 114.369 501.254 118.401C501.051 119.311 501.332 119.408 502.102 119.393L502.39 119.387C504.27 119.352 506.157 119.316 508.033 119.408C509.051 119.46 509.402 119.119 509.602 118.153C510.232 115.079 510.886 112.01 511.54 108.941L511.549 108.901C512.109 106.273 512.669 103.645 513.213 101.014C513.369 100.266 513.65 100.04 514.401 100.063C515.451 100.094 516.501 100.09 517.552 100.086C518.358 100.083 519.164 100.079 519.97 100.092C520.573 100.103 520.91 100.007 521.025 99.2929C521.207 98.1701 521.47 97.057 521.732 95.9457C521.794 95.684 521.856 95.4212 521.917 95.1597C522.054 94.5491 522.028 94.2162 521.221 94.2199Z" fill="#0A8049"/>
<path d="M38.5748 94.2199C44.51 94.2384 50.4416 94.2422 56.3731 94.2163C57.1058 94.2163 57.2723 94.4271 57.1021 95.1154C56.7654 96.4845 56.4508 97.861 56.2103 99.2486C56.0956 99.9072 55.8255 100.107 55.1779 100.089C54.025 100.057 52.8701 100.063 51.7161 100.069C51.2555 100.071 50.7944 100.074 50.3342 100.074C49.8846 100.074 49.4346 100.076 48.9844 100.078C47.8609 100.085 46.7351 100.091 45.6127 100.059C44.9355 100.04 44.6543 100.203 44.5026 100.936C43.9613 103.565 43.4003 106.19 42.8392 108.814C42.1881 111.859 41.5371 114.904 40.917 117.957C40.6913 119.075 40.3028 119.478 39.1224 119.408C37.2298 119.295 35.3265 119.343 33.4299 119.39L33.313 119.393C32.5211 119.411 32.3435 119.175 32.5063 118.416C34.1973 110.623 35.8736 102.831 37.5165 95.0266C37.6608 94.342 37.9642 94.2199 38.5748 94.2199Z" fill="#0A8049"/>
<path d="M71.7851 86.0665C73.0987 86.0739 73.4872 85.6705 73.6353 84.4605C73.9089 82.2623 74.3072 80.0838 74.7054 77.9053L74.7061 77.9009C75.1367 75.5456 75.5679 73.1868 75.8406 70.8064L75.8611 70.628C75.9325 70.0107 75.9695 69.6913 75.8272 69.5259C75.6747 69.3486 75.316 69.3486 74.5724 69.3486L64.781 69.349C54.7568 69.3497 44.7325 69.3503 34.7083 69.3448C33.2282 69.3448 31.774 69.2894 30.3087 68.8971C26.3605 67.8388 23.3706 65.5298 21.3503 62.0589C19.6407 59.1209 19.0561 55.8944 19.6481 52.4938C20.2957 48.7677 22.168 45.7037 24.9987 43.317C27.3521 41.3299 30.268 40.3863 33.3355 40.3123C36.6067 40.2295 39.878 40.248 43.1631 40.2667H43.1814C44.587 40.2747 45.9959 40.2827 47.4076 40.2827C47.3486 40.6383 47.2916 40.9869 47.2354 41.3305C47.1087 42.1058 46.9859 42.8573 46.8526 43.6056C46.6803 44.561 46.5031 45.5158 46.326 46.4705L46.3252 46.4751L46.3236 46.4835C46.0606 47.9013 45.7972 49.321 45.5501 50.7399C45.3397 51.9472 45.1404 53.1563 44.9411 54.3653C44.5657 56.6428 44.1902 58.9212 43.7407 61.1858C43.5335 62.233 43.6297 62.5215 44.736 62.5215C58.8405 62.5003 72.9451 62.5014 87.0517 62.5024L96.4475 62.5029C98.4234 62.5029 100.385 62.3403 102.324 61.937C109.724 60.4013 115.889 56.8378 120.74 50.9691C124.781 46.0774 127.112 40.4715 127.615 34.2291C127.926 30.3586 127.667 26.4734 126.534 22.6251C124.425 15.465 120.259 9.9109 114.268 5.63707C108.758 1.70737 102.531 0.020111 95.8148 0.0164107C86.3273 0.00845584 76.8398 0.00993025 67.351 0.0114049L56.0922 0.0125713C55.9313 0.0125713 55.7694 0.0135311 55.6075 0.014491C55.4456 0.0154508 55.2837 0.0164107 55.1227 0.0164107C54.7638 0.0164107 54.5788 0.112638 54.4974 0.545571C54.1749 2.31069 53.8771 4.08016 53.5792 5.8496C53.0536 8.97278 52.5279 12.0959 51.8665 15.1949C51.552 16.6602 51.6889 16.7528 53.1875 16.7528L63.4163 16.7523C73.4893 16.7516 83.5612 16.7509 93.6353 16.7564C97.7944 16.7601 101.417 18.2106 104.292 21.193C107.855 24.8896 109.036 29.4187 108.007 34.3845C106.664 40.8489 101.387 45.3114 94.8674 45.7555C91.859 45.9606 88.8345 45.917 85.8101 45.8734C84.4711 45.854 83.132 45.8347 81.7944 45.837L81.7829 45.837C81.0806 45.8388 80.7381 45.8397 80.5962 45.6714C80.4612 45.5112 80.508 45.1977 80.5993 44.5857L80.6251 44.4123C80.7168 43.7915 80.8271 43.1744 80.9373 42.5573L80.9387 42.5487L80.9396 42.5437C81.1859 41.1619 81.4369 39.781 81.6878 38.4001L81.6886 38.3958C81.9805 36.7901 82.2723 35.1846 82.5566 33.578C82.7382 32.5484 82.9115 31.5169 83.0849 30.4854C83.4022 28.5968 83.7202 26.7045 84.0885 24.8266C84.2995 23.7536 84.0182 23.5761 82.9784 23.5761C65.9016 23.6131 48.8286 23.6094 31.7518 23.5872C29.7721 23.5835 27.7998 23.7351 25.8794 24.094C18.1532 25.5371 11.7517 29.2892 6.83037 35.4539C3.07458 40.1569 0.946907 45.5224 0.221651 51.5058C-0.103973 54.2033 -0.0780558 56.8859 0.347477 59.5242C1.28735 65.3633 3.65921 70.5696 7.5334 75.1136C10.4122 78.4882 13.835 81.1339 17.7869 83.0063C22.3123 85.1487 27.1486 86.0702 32.1921 86.048C45.3873 85.9888 58.5862 86.0036 71.7851 86.0665Z" fill="#0B94D6"/>
</svg>
