
<svg width="1440" height="600" viewBox="0 0 1440 600" fill="none" xmlns="http://www.w3.org/2000/svg">
<path fill-rule="evenodd" clip-rule="evenodd" d="M2.75794 0H3.80641L19.405 49.434L19.358 49.584L0 110.929V107.606L18.357 49.434L2.75794 0ZM3.80426 607H2.7556L0.756 600.663L0.804 600.513L43.174 466.239L0 329.419V326.095L44.223 466.24L44.176 466.39L1.805 600.664L3.80426 607ZM25.6741 607H24.6265L18.357 587.131L18.404 586.981L60.774 452.707L0 260.11V256.788L61.822 452.709L61.775 452.859L19.405 587.133L25.6741 607ZM47.5454 607H46.4964L35.957 573.6L36.004 573.45L78.375 439.176L0 190.802V187.478L79.424 439.176L79.376 439.326L37.006 573.6L47.5454 607ZM68.3664 607L53.557 560.068L53.604 559.918L95.974 425.644L11.139 156.794L11.186 156.644L53.557 22.37L46.4982 0H47.546L54.605 22.371L54.558 22.521L12.188 156.795L97.023 425.645L96.975 425.795L54.605 560.069L69.4141 607H68.3664ZM90.2366 607L71.157 546.535L71.205 546.385L113.575 412.111L28.74 143.262L28.787 143.112L71.157 8.83801L68.3681 0H69.4175L72.207 8.83997L72.159 8.98999L29.789 143.264L114.624 412.113L114.576 412.263L72.206 546.537L91.2852 607H90.2366ZM112.108 607L88.759 533.004L88.806 532.854L131.176 398.58L46.341 129.73L46.389 129.58L87.2778 0H88.3268L47.39 129.732L132.225 398.582L132.177 398.732L89.807 533.006L113.156 607H112.108ZM133.977 607L106.358 519.474L106.405 519.324L148.776 385.05L63.941 116.2L63.988 116.05L100.607 0H101.657L64.989 116.2L149.824 385.05L149.776 385.2L107.406 519.474L135.025 607H133.977ZM155.849 607L123.96 505.94L124.007 505.79L166.378 371.516L81.543 102.666L81.59 102.516L113.939 0H114.988L82.591 102.668L167.426 371.518L167.378 371.668L125.008 505.942L156.897 607H155.849ZM177.718 607L141.558 492.408L141.605 492.258L183.975 357.984L99.14 89.134L99.187 88.9839L127.266 0H128.318L100.191 89.137L185.026 357.987L184.978 358.137L142.608 492.411L178.767 607H177.718ZM199.588 607L159.159 478.876L159.206 478.726L201.576 344.452L116.741 75.6021L116.788 75.452L140.597 0H141.648L117.79 75.605L202.625 344.455L202.578 344.605L160.208 478.879L200.637 607H199.588ZM221.457 607L176.758 465.346L176.805 465.196L219.176 330.922L134.34 62.072L134.387 61.922L153.927 0H154.978L135.391 62.073L220.226 330.923L220.178 331.073L177.808 465.347L222.507 607H221.457ZM243.329 607L194.36 451.812L194.407 451.662L236.777 317.388L151.941 48.5389L151.988 48.389L167.257 0H168.31L152.992 48.542L237.828 317.391L237.78 317.541L195.41 451.815L244.378 607H243.329ZM265.199 607L211.96 438.282L212.007 438.132L254.378 303.858L169.543 35.0081L169.59 34.858L180.589 0H181.64L170.593 35.01L255.428 303.86L255.38 304.01L213.01 438.284L266.248 607H265.199ZM287.071 607L229.562 424.748L229.609 424.598L271.979 290.325L187.144 21.475L187.191 21.325L193.92 0H194.971L188.193 21.479L273.028 290.329L272.98 290.479L230.61 424.752L288.119 607H287.071ZM308.94 607L247.16 411.217L247.207 411.067L289.578 276.793L204.742 7.94299L204.789 7.79297L207.248 0H208.3L205.793 7.94604L290.629 276.796L290.581 276.946L248.211 411.22L309.989 607H308.94ZM330.807 607L264.759 397.687L264.807 397.537L307.177 263.263L224.105 0H225.154L308.228 263.265L308.181 263.415L265.81 397.689L331.858 607H330.807ZM352.681 607L282.363 384.157L282.41 384.007L324.78 249.733L245.977 0H247.027L325.83 249.733L325.782 249.883L283.412 384.157L353.73 607H352.681ZM374.551 607L299.963 370.625L300.01 370.475L342.38 236.201L267.847 0H268.897L343.43 236.202L343.383 236.352L301.013 370.626L375.6 607H374.551ZM396.422 607L317.564 357.093L317.611 356.943L359.982 222.669L289.718 0H290.767L361.029 222.667L360.981 222.817L318.611 357.091L397.47 607H396.422ZM419.34 607H418.292L335.165 343.562L335.212 343.412L377.582 209.138L311.588 0H312.637L378.631 209.138L378.583 209.288L336.213 343.562L419.34 607ZM436.08 607H435.032L437.595 598.877L352.76 330.027L352.808 329.877L395.178 195.603L333.456 0H334.504L396.226 195.603L396.179 195.753L353.808 330.027L438.643 598.877L438.596 599.027L436.08 607ZM449.416 607H448.367L455.2 585.347L370.365 316.497L370.412 316.347L412.782 182.073L355.329 0H356.378L413.831 182.073L413.783 182.223L371.413 316.497L456.249 585.347L456.201 585.497L449.416 607ZM462.747 607H461.697L472.8 571.814L387.964 302.964L388.011 302.814L430.382 168.541L377.199 0H378.249L431.433 168.544L431.385 168.694L389.015 302.967L473.85 571.817L473.802 571.967L462.747 607ZM476.078 607H475.025L490.398 558.283L405.563 289.433L405.611 289.283L447.981 155.009L399.068 0H400.118L449.032 155.012L448.985 155.162L406.614 289.436L491.449 558.286L491.402 558.436L476.078 607ZM489.408 607H488.357L508.001 544.749L423.166 275.9L423.213 275.75L465.583 141.476L420.94 0H421.988L466.632 141.48L466.584 141.63L424.214 275.904L509.05 544.753L509.003 544.903L489.408 607ZM502.738 607H501.688L525.601 531.219L440.766 262.369L440.813 262.219L483.183 127.945L442.81 0H443.858L484.232 127.948L484.185 128.098L441.815 262.372L526.65 531.222L526.603 531.372L502.738 607ZM516.069 607H515.02L543.203 517.688L458.368 248.838L458.415 248.688L500.785 114.414L464.681 0H465.729L501.833 114.417L501.786 114.567L459.415 248.841L544.251 517.691L544.204 517.841L516.069 607ZM529.399 607H528.35L560.803 504.156L475.968 235.306L476.015 235.156L518.385 100.882L486.551 0H487.598L519.433 100.885L519.386 101.035L477.015 235.309L561.851 504.159L561.804 504.309L529.399 607ZM542.731 607H541.681L578.403 490.625L493.568 221.775L493.615 221.625L535.986 87.3511L508.422 0H509.47L537.035 87.354L536.988 87.5039L494.617 221.778L579.452 490.628L579.405 490.778L542.731 607ZM556.06 607H555.011L596.004 477.092L511.169 208.242L511.216 208.092L553.586 73.818L530.293 0H531.34L554.634 73.821L554.587 73.9709L512.217 208.245L597.052 477.095L597.005 477.245L556.06 607ZM575.079 607H574.031L571.186 597.983L571.233 597.833L613.603 463.559L528.768 194.709L528.816 194.559L571.186 60.285L552.163 0H553.21L572.235 60.29L572.188 60.4399L529.817 194.714L614.652 463.564L614.605 463.714L572.235 597.988L575.079 607ZM596.949 607H595.901L588.786 584.451L588.833 584.301L631.204 450.027L546.369 181.178L546.416 181.028L588.786 46.754L574.033 0H575.08L589.835 46.759L589.788 46.9091L547.418 181.183L632.253 450.032L632.206 450.182L589.835 584.456L596.949 607ZM618.819 607H617.77L606.386 570.922L606.433 570.772L648.804 436.498L563.968 167.648L564.016 167.498L606.386 33.224L595.902 0H596.951L607.436 33.2271L607.389 33.377L565.018 167.651L649.854 436.501L649.807 436.651L607.436 570.925L618.819 607ZM640.691 607H639.641L623.987 557.391L624.034 557.241L666.404 422.968L581.569 154.118L581.617 153.968L623.987 19.694L617.773 0H618.822L625.037 19.6949L624.99 19.845L582.619 154.119L667.454 422.969L667.407 423.119L625.037 557.392L640.691 607ZM662.56 607H661.511L641.586 543.858L641.633 543.708L684.004 409.434L599.169 140.584L599.216 140.434L641.586 6.16003L639.642 0H640.692L642.637 6.16296L642.59 6.31299L600.22 140.587L685.055 409.437L685.008 409.587L642.637 543.861L662.56 607ZM684.43 607H683.381L659.186 530.326L659.233 530.176L701.604 395.902L616.768 127.052L616.816 126.902L656.86 0H657.912L617.819 127.056L702.655 395.906L702.608 396.056L660.237 530.33L684.43 607ZM706.3 607H705.252L676.789 516.796L676.836 516.646L719.206 382.372L634.371 113.522L634.419 113.372L670.193 0H671.242L635.419 113.524L720.254 382.374L720.207 382.524L677.837 516.798L706.3 607ZM728.17 607H727.122L694.388 503.264L694.435 503.114L736.806 368.84L651.971 99.99L652.018 99.8401L683.522 0H684.572L653.02 99.9919L737.855 368.842L737.808 368.992L695.437 503.266L728.17 607ZM750.041 607H748.993L711.989 489.732L712.036 489.582L754.406 355.308L669.571 86.458L669.618 86.308L696.853 0H697.903L670.62 86.46L755.455 355.31L755.408 355.46L713.038 489.734L750.041 607ZM771.911 607H770.862L729.588 476.198L729.635 476.048L772.006 341.774L687.171 72.924L687.218 72.774L710.182 0H711.234L688.221 72.929L773.056 341.779L773.009 341.929L730.638 476.203L771.911 607ZM793.781 607H792.732L747.188 462.667L747.235 462.517L789.606 328.243L704.77 59.394L704.818 59.244L723.512 0H724.561L705.819 59.395L790.655 328.244L790.608 328.394L748.237 462.668L793.781 607ZM815.653 607H814.604L764.791 449.139L764.838 448.989L807.208 314.715L722.373 45.865L722.42 45.713L736.845 0H737.895L723.422 45.865L808.257 314.715L808.21 314.865L765.84 449.139L815.653 607ZM837.524 607H836.474L782.39 435.606L782.437 435.456L824.808 301.182L739.973 32.332L740.02 32.182L750.175 0H751.225L741.023 32.332L825.858 301.182L825.811 301.332L783.44 435.606L837.524 607ZM859.392 607H858.343L799.99 422.074L800.037 421.924L842.408 287.65L757.572 18.8L757.62 18.65L763.505 0H764.555L758.622 18.802L843.458 287.652L843.411 287.802L801.04 422.076L859.392 607ZM881.263 607H880.215L817.592 408.542L817.639 408.392L860.009 274.118L775.174 5.26794L775.221 5.11804L776.836 0H777.886L776.223 5.271L861.058 274.121L861.011 274.271L818.641 408.545L881.263 607ZM903.133 607H902.084L835.191 395.009L835.238 394.859L877.609 260.585L795.382 0H796.431L878.659 260.588L878.612 260.738L836.241 395.012L903.133 607ZM925.003 607H923.955L852.792 381.479L852.839 381.329L895.209 247.055L817.251 0H818.3L896.258 247.057L896.211 247.207L853.841 381.481L925.003 607ZM946.875 607H945.826L870.393 367.948L870.44 367.798L912.811 233.524L839.123 0H840.171L913.86 233.525L913.813 233.675L871.442 367.949L946.875 607ZM968.744 607H967.693L887.991 354.416L888.038 354.266L930.409 219.992L860.99 0H862.041L931.46 219.993L931.413 220.143L889.042 354.417L968.744 607ZM990.615 607H989.566L905.593 340.883L905.64 340.733L948.01 206.459L882.862 0H883.911L949.06 206.461L949.013 206.611L906.643 340.885L990.615 607ZM1005.67 607H1004.62L1008.03 596.202L923.194 327.352L923.241 327.202L965.612 192.928L904.734 0H905.783L966.661 192.928L966.614 193.078L924.243 327.352L1009.08 596.202L1009.03 596.352L1005.67 607ZM1019 607H1017.95L1025.63 582.669L940.794 313.82L940.841 313.67L983.212 179.396L926.603 0H927.652L984.261 179.396L984.214 179.546L941.843 313.82L1026.68 582.669L1026.63 582.819L1019 607ZM1032.33 607H1031.28L1043.23 569.137L958.395 300.287L958.442 300.137L1000.81 165.863L948.474 0H949.523L1001.86 165.863L1001.81 166.013L959.444 300.287L1044.28 569.137L1044.23 569.287L1032.33 607ZM1045.66 607H1044.61L1060.83 555.605L975.994 286.755L976.041 286.605L1018.41 152.331L970.344 0H971.393L1019.46 152.331L1019.41 152.481L977.043 286.755L1061.88 555.605L1061.83 555.755L1045.66 607ZM1058.99 607H1057.94L1078.43 542.074L993.596 273.224L993.643 273.074L1036.01 138.8L992.214 0H993.264L1037.06 138.8L1037.02 138.95L994.645 273.224L1079.48 542.074L1079.43 542.224L1058.99 607ZM1072.32 607H1071.27L1096.03 528.544L1011.19 259.694L1011.24 259.544L1053.61 125.27L1014.08 0H1015.13L1054.66 125.27L1054.61 125.42L1012.24 259.694L1097.08 528.544L1097.03 528.694L1072.32 607ZM1085.65 607H1084.6L1113.63 515.01L1028.8 246.16L1028.84 246.01L1071.21 111.736L1035.95 0H1037L1072.26 111.736L1072.21 111.886L1029.84 246.16L1114.68 515.01L1114.63 515.16L1085.65 607ZM1098.99 607H1097.94L1131.23 501.48L1046.4 232.63L1046.44 232.48L1088.81 98.2061L1057.83 0H1058.87L1089.86 98.209L1089.82 98.3589L1047.45 232.633L1132.28 501.483L1132.23 501.633L1098.99 607ZM1112.32 607H1111.26L1148.83 487.946L1064 219.096L1064.04 218.946L1106.41 84.673L1079.7 0H1080.74L1107.46 84.678L1107.42 84.828L1065.05 219.101L1149.88 487.951L1149.83 488.101L1112.32 607ZM1125.65 607H1124.6L1166.43 474.416L1081.6 205.566L1081.64 205.416L1124.02 71.142L1101.57 0H1102.61L1125.06 71.146L1125.02 71.296L1082.65 205.57L1167.48 474.42L1167.43 474.57L1125.65 607ZM1146.35 607H1145.31L1141.62 595.307L1141.66 595.157L1184.03 460.883L1099.2 192.034L1099.25 191.884L1141.62 57.61L1123.44 0H1124.48L1142.67 57.614L1142.62 57.764L1100.25 192.038L1185.08 460.887L1185.04 461.037L1142.67 595.311L1146.35 607ZM1168.22 607H1167.17L1159.21 581.776L1159.26 581.626L1201.63 447.352L1116.8 178.502L1116.84 178.352L1159.21 44.078L1145.31 0H1146.36L1160.26 44.078L1160.22 44.228L1117.85 178.502L1202.68 447.352L1202.63 447.502L1160.26 581.776L1168.22 607ZM1190.09 607H1189.04L1176.81 568.245L1176.86 568.095L1219.23 433.821L1134.4 164.971L1134.44 164.821L1176.81 30.547L1167.18 0H1168.23L1177.87 30.551L1177.82 30.701L1135.45 164.975L1220.28 433.825L1220.24 433.975L1177.87 568.249L1190.09 607ZM1211.96 607H1210.92L1194.42 554.714L1194.46 554.564L1236.83 420.29L1152 151.44L1152.05 151.29L1194.42 17.016L1189.05 0H1190.1L1195.47 17.019L1195.42 17.1689L1153.05 151.443L1237.88 420.293L1237.84 420.443L1195.47 554.717L1211.96 607ZM1233.84 607H1232.79L1212.02 541.183L1212.06 541.033L1254.44 406.759L1169.6 137.909L1169.65 137.759L1212.02 3.48499L1210.92 0H1211.97L1213.07 3.48499L1213.02 3.63501L1170.65 137.909L1255.48 406.759L1255.44 406.909L1213.07 541.183L1233.84 607ZM1255.71 607H1254.66L1229.62 527.648L1229.67 527.498L1272.04 393.224L1187.2 124.374L1187.25 124.224L1226.45 0H1227.5L1188.25 124.374L1273.08 393.224L1273.04 393.374L1230.67 527.648L1255.71 607ZM1277.58 607H1276.53L1247.22 514.117L1247.27 513.967L1289.64 379.693L1204.8 110.843L1204.85 110.693L1239.78 0H1240.83L1205.85 110.843L1290.69 379.693L1290.64 379.843L1248.27 514.117L1277.58 607ZM1299.44 607H1298.4L1264.82 500.586L1264.87 500.436L1307.24 366.162L1222.4 97.312L1222.45 97.1621L1253.11 0H1254.16L1223.45 97.312L1308.28 366.162L1308.24 366.312L1265.87 500.586L1299.44 607ZM1321.32 607H1320.27L1282.42 487.056L1282.47 486.906L1324.84 352.632L1240 83.782L1240.05 83.632L1266.44 0H1267.49L1241.05 83.782L1325.88 352.632L1325.84 352.782L1283.47 487.056L1321.32 607ZM1343.19 607H1342.14L1300.02 473.522L1300.06 473.372L1342.44 339.098L1257.6 70.248L1257.65 70.098L1279.77 0H1280.82L1258.65 70.248L1343.48 339.098L1343.44 339.248L1301.07 473.522L1343.19 607ZM1365.06 607H1364.01L1317.62 459.992L1317.67 459.842L1360.04 325.568L1275.2 56.718L1275.25 56.568L1293.1 0H1294.15L1276.25 56.72L1361.09 325.57L1361.04 325.72L1318.67 459.994L1365.06 607ZM1386.93 607H1385.88L1335.22 446.459L1335.27 446.309L1377.64 312.035L1292.8 43.186L1292.85 43.036L1306.43 0H1307.48L1293.85 43.1899L1378.69 312.039L1378.64 312.189L1336.27 446.463L1386.93 607ZM1408.8 607H1407.74L1352.82 432.928L1352.86 432.778L1395.23 298.504L1310.4 29.6541L1310.45 29.504L1319.76 0H1320.81L1311.45 29.657L1396.29 298.507L1396.24 298.657L1353.87 432.931L1408.8 607ZM1430.67 607H1429.62L1370.42 419.397L1370.47 419.247L1412.84 284.973L1328 16.123L1328.05 15.973L1333.09 0H1334.14L1329.05 16.126L1413.89 284.976L1413.84 285.126L1371.47 419.4L1430.67 607ZM1452.54 607H1451.49L1388.02 405.866L1388.07 405.716L1430.44 271.442L1345.6 2.59204L1345.65 2.44202L1346.42 0H1347.47L1346.65 2.59399L1431.49 271.444L1431.44 271.594L1389.07 405.868L1452.54 607ZM1454.14 0H1455.19L1460 15.259V18.5811L1454.14 0ZM1432.27 0H1433.31L1460 84.568V87.8921L1432.27 0ZM1410.4 0H1411.44L1460 153.877V157.199L1410.4 0ZM1388.53 0H1389.57L1460 223.186V226.509L1388.53 0ZM1366.65 0H1367.7L1449.09 257.912L1449.04 258.062L1406.67 392.336L1460 561.344V564.663L1405.62 392.333L1405.67 392.183L1448.04 257.909L1366.65 0ZM24.6281 0H25.6762L37.005 35.902L36.958 36.052L0 153.174V149.85L35.957 35.902L24.6281 0ZM1458.47 351.591L1460 346.743V350.065L1459.47 351.741L1460 353.418V356.74L1458.42 351.741L1458.47 351.591ZM1423.27 378.654L1460 262.251V265.574L1424.27 378.804L1460 492.034V495.357L1423.22 378.804L1423.27 378.654ZM1440.87 365.123L1460 304.498H1460V307.818L1441.87 365.272L1460 422.726V426.049L1440.82 365.273L1440.87 365.123ZM8.974 493.453L0 521.892V518.57L7.973 493.303L0 468.036V464.712L9.022 493.303L8.974 493.453ZM26.575 479.922L0 564.139V560.816L25.574 479.771L0 398.727V395.405L26.622 479.772L26.575 479.922ZM1.757 63.115L0 68.684V65.361L0.756 62.964L0 60.568V57.246L1.804 62.965L1.757 63.115Z" fill="#3C2254"/>
</svg>
