<svg width="124" height="94" viewBox="0 0 124 94"  xmlns="http://www.w3.org/2000/svg">

<path fill="none" d="M85.305 13.1569V2H29.5204L2 28.0328V78.1155H23.5671M29.8915 13.1569V2M85.3056 28.0336H98.4462V38.0406C98.4462 39.34 97.8475 40.5665 96.8225 41.3661L85.3056 50.3474M91.8758 28.0336V45.2234M29.8929 28.0336H16.7523V38.0406C16.7523 39.34 17.3511 40.5665 18.376 41.3661L29.8929 50.3474M23.3226 28.0336V45.2234M45.5878 53.763H69.6094M49.892 61.256H65.3057M49.892 75.4715H65.3057M85.3051 70.1815H76.297L73.2735 74.8629C72.3675 76.2657 73.3747 78.1155 75.0445 78.1155H85.3051M29.8915 70.1815H38.8996L41.9231 74.8629C42.8291 76.2657 41.822 78.1155 40.1521 78.1155H29.8915M8.36466 78.1159V86.3802H24.3979V89.8917C24.3979 91.0565 23.454 92.0003 22.2892 92.0003H14.9205C13.7624 92.0003 12.8207 91.0661 12.8118 89.9073L12.7858 86.3802M35.0858 61.256H41.6975L46.9575 69.0792H68.2407L73.5015 61.256H80.1131M98.4447 36.6283H105.979C107.711 36.6283 112.251 38.0318 112.251 39.7641V84.6848C112.251 86.4164 110.848 87.8207 109.115 87.8207H81.3368M91.6295 57.0931H100.271C102.002 57.0931 106.543 55.6896 106.543 53.9573V44.433H92.888M112.251 44.433H122.022V51.8746C122.022 52.8408 121.577 53.7535 120.815 54.347L112.251 61.0263M117.137 44.433V57.2158M91.6295 63.5661H100.58M91.6295 69.1382H97.3783M91.6295 79.7085H97.3783M112.252 75.7748H105.553L103.304 79.2558C102.63 80.2993 103.38 81.6739 104.622 81.6739H112.252M108.391 69.1382H103.474L99.5617 74.9561H85.3054M81.0888 86.3801H34.11C31.7812 86.3801 29.8935 84.4923 29.8935 82.1635V21.754C29.8935 19.4252 35.9986 17.5374 38.3274 17.5374H76.873C79.2019 17.5374 85.3069 19.4252 85.3069 21.754V82.1628C85.3054 84.4916 83.4177 86.3801 81.0888 86.3801ZM37.5687 28.0336H77.628V40.8417C77.628 43.1705 71.523 45.0583 69.1942 45.0583H46.0027C43.6835 45.0583 37.5687 43.1608 37.5687 40.8417V28.0336ZM44.8485 91.9986H35.9683C34.8035 91.9986 33.8597 91.0548 33.8597 89.89V86.3785H46.9564V89.89C46.9564 91.0548 46.0125 91.9986 44.8485 91.9986ZM79.2287 91.9986H70.3486C69.1838 91.9986 68.2399 91.0548 68.2399 89.89V86.3785H81.3366V89.89C81.3373 91.0548 80.3935 91.9986 79.2287 91.9986ZM107.191 91.9995H101.669C100.504 91.9995 99.5601 91.0556 99.5601 89.8908V87.8201H109.299V89.8908C109.299 91.0556 108.355 91.9995 107.191 91.9995Z" stroke="white" stroke-width="3" stroke-miterlimit="10" stroke-linecap="round" stroke-linejoin="round"/>
</svg>
