<svg width="61" height="69" viewBox="0 0 61 69" fill="none" xmlns="http://www.w3.org/2000/svg">
<path d="M41.8477 67H2V60.1009C2 49.4903 10.6016 40.8886 21.2123 40.8886M19.0776 67H58.9253V60.1009C58.9253 49.4903 50.3236 40.8886 39.713 40.8886M17.7782 24.9557L18.8615 34.1863C18.8615 35.8069 19.4973 37.3628 20.6323 38.5196L25.478 43.4585C26.6416 44.6445 27.1499 45.3127 28.8114 45.3127H30.4626M43.0852 24.9557L42.0019 34.1863C42.0019 35.8069 41.3661 37.3628 40.2311 38.5196L35.3854 43.4585C34.2218 44.6445 33.7135 45.3127 32.052 45.3127H30.4008M30.5161 22.852C30.4956 22.852 30.4751 22.852 30.4544 22.8521M30.4544 22.8521C27.6719 22.8634 23.6243 23.6329 20.3995 24.6464C16.5007 25.8716 8.36254 21.9743 17.7079 18.4898C23.1566 16.4582 26.3998 16.1111 30.4544 16.1076M30.4544 22.8521C30.4338 22.852 30.4132 22.852 30.3927 22.852M30.4544 22.8521C33.2369 22.8634 37.2846 23.6329 40.5093 24.6464C44.4082 25.8716 52.5463 21.9743 43.2009 18.4898C37.7523 16.4582 34.509 16.1111 30.4544 16.1076M30.4544 16.1076C30.475 16.1076 30.4955 16.1076 30.5161 16.1076M30.4544 16.1076C30.4339 16.1076 30.4133 16.1076 30.3927 16.1076M30.4626 2H29.0395C21.5215 2 15.4269 8.09455 15.4269 15.6126V19.5107M30.4936 2H31.9167C39.4347 2 45.5293 8.09455 45.5293 15.6126V19.5107M42.8637 26.843C47.7831 23.4707 44.1053 36.8668 42.0015 34.0206M17.9997 26.843C13.0803 23.4707 16.7675 36.8668 18.8713 34.0206M21.2432 40.9196L27.5545 50.108L30.4936 57.0381V66.9072M39.6821 40.9196L33.3708 50.108L30.4317 57.0381V66.9072M27.5545 50.0771C26.0076 50.7371 22.524 52.5212 20.9648 54.3774C19.059 51.4817 15.5094 45.0858 13.9729 42.2499M33.3708 50.0771C34.9177 50.7371 38.4012 52.5212 39.9605 54.3774C41.8663 51.4817 45.4158 45.0858 46.9524 42.2499M12.7354 57.8396H25.3889V60.4069L25.2957 60.5C21.9128 63.8829 16.428 63.8829 13.0451 60.5L12.7354 60.1903V57.8396ZM48.1899 57.8396H35.5364V60.4069L35.6295 60.5C39.0125 63.8829 44.4973 63.8829 47.8802 60.5L48.1899 60.1903V57.8396Z" stroke="#11B6CA" stroke-width="3" stroke-linecap="round" stroke-linejoin="round"/>
</svg>
