<svg width="75" height="75" viewBox="0 0 95 94" fill="none" xmlns="http://www.w3.org/2000/svg">
<path d="M62.3898 1.54321H32.1949V31.7381M62.3898 1.54321V31.7381M62.3898 1.54321H92.5847V31.7381M62.3898 31.7381H32.1949M62.3898 31.7381H92.5847M62.3898 31.7381V61.9331M32.1949 31.7381V61.9331M32.1949 31.7381L2 31.7383V61.9331H32.1949M92.5847 31.7381V61.9331H62.3898M62.3898 61.9331H32.1949M42.9082 1.54321V8.11954L45.1003 5.92743L47.2924 8.11954L49.4845 5.92743L51.6766 8.11954V1.54321H42.9082ZM73.1024 1.54321V8.11954L75.2952 5.92743L77.4873 8.11954L79.6794 5.92743L81.8715 8.11954V1.54321H73.1024ZM42.9082 31.7383V38.3146L45.1003 36.1225L47.2924 38.3146L49.4845 36.1225L51.6766 38.3146V31.7383H42.9082ZM12.7133 31.7383V38.3146L14.9054 36.1225L17.0975 38.3146L19.2896 36.1225L21.4817 38.3146V31.7383H12.7133ZM73.1024 31.7383V38.3146L75.2952 36.1225L77.4873 38.3146L79.6794 36.1225L81.8715 38.3146V31.7383H73.1024ZM2 67.9252H92.5846V73.9174H2V67.9252ZM2 85.551H92.5846V91.5432H2V85.551ZM27.8102 73.9169V85.551H12.7128V73.9169H27.8102ZM81.8714 73.9172V85.5513H66.774V73.9172H81.8714Z" stroke="white" stroke-width="3" stroke-miterlimit="10" stroke-linecap="round" stroke-linejoin="round"/>
</svg>
