<svg width="246" height="120" viewBox="0 0 246 120" fill="none" xmlns="http://www.w3.org/2000/svg">
<path d="M0.641486 59.8288C2.22358 53.3177 4.88359 47.3343 9.91132 42.7776C15.3361 37.8611 21.373 33.84 28.5873 31.9344C30.4407 31.4448 32.3306 31.1803 34.2525 31.1826C36.2311 31.185 37.2163 31.8805 37.8682 33.7611C38.4256 35.369 38.6802 37.0504 38.9631 38.7166C39.778 43.516 41.3703 48.0088 43.8721 52.2017C46.6018 56.7767 49.4604 61.28 51.8492 66.0522C54.1113 70.5711 55.8699 75.2504 56.7029 80.2695C57.4067 84.5107 56.9224 88.6279 55.8107 92.7202C54.4481 97.7358 52.3789 102.399 48.9905 106.403C46.7758 109.021 43.9845 110.977 41.2761 113.014C37.4583 115.886 33.3119 118.13 28.6108 119.22C27.3514 119.513 26.0829 119.743 24.7888 119.812C24.607 119.822 24.4049 119.784 24.2689 119.962C23.568 119.962 22.8671 119.962 22.1664 119.962C20.162 119.482 19.27 117.999 18.7499 116.179C18.595 115.636 18.4075 115.101 18.2875 114.551C16.9318 108.339 14.7943 102.429 11.6883 96.862C9.47378 92.893 7.25956 88.9205 5.25837 84.8363C3.13489 80.5026 1.30305 76.0622 0.406784 71.2905C0.18486 70.1104 -0.499997 64.5267 0.641486 59.8288ZM19.2154 44.4037C17.2207 45.9808 15.8185 47.8692 15.072 50.174C14.1237 53.1022 13.8975 56.1383 14.1469 59.1946C14.475 63.213 15.7245 66.9842 17.4346 70.6076C19.6771 75.3592 22.3525 79.8776 24.9537 84.4361C29.099 91.6996 34.2343 98.3853 37.5976 106.104C37.752 106.459 37.9471 106.37 38.1419 106.171C38.5367 105.767 38.9404 105.369 39.3013 104.935C41.9827 101.715 42.8572 97.8879 43.0205 93.8211C43.2233 88.7717 42.08 84.0359 39.6143 79.6415C36.4659 74.0306 33.3064 68.4261 29.8435 62.9977C26.8199 58.258 23.4698 53.7146 21.1052 48.573C20.4879 47.2306 19.8021 45.9199 19.2154 44.4037Z" fill="#BE3427"/>
<path d="M140.651 119.562C135.854 118.28 133.041 115.035 131.223 110.595C130.083 107.809 129.783 104.885 129.962 101.882C130.487 93.0998 133.161 84.8431 136.11 76.6594C137.814 71.9293 139.546 67.2044 141.446 62.5504C144.918 54.0428 146.551 45.2407 146.111 36.0584C146.088 35.5743 146.085 35.0885 146.089 34.6038C146.1 33.4338 146.736 32.6752 147.888 32.4834C148.285 32.4172 148.692 32.385 149.094 32.3842C152.624 32.3768 156.155 32.3726 159.685 32.3831C161.432 32.3883 162.393 33.1084 162.893 34.7589C170.379 59.4553 177.863 84.1521 185.347 108.849C186.017 111.062 186.685 113.275 187.347 115.49C187.646 116.492 187.47 116.902 186.542 117.394C185.937 117.715 185.291 117.865 184.601 117.864C180.937 117.857 177.272 117.865 173.607 117.859C172.018 117.856 171.289 117.329 170.81 115.818C169.674 112.23 168.552 108.638 167.423 105.047C167.36 104.846 167.285 104.647 167.211 104.435C166.909 104.593 166.868 104.88 166.743 105.107C163.406 111.193 158.692 115.457 152.649 117.962C151.054 118.624 149.366 119.325 147.587 119.742C147.284 119.813 145.759 120.005 144.229 120C142.653 119.995 140.908 119.631 140.651 119.562ZM152.592 56.5753C152.535 56.5873 152.478 56.5994 152.421 56.6114C152.333 57.4656 152.263 58.3224 152.151 59.1737C151.552 63.7218 150.359 68.128 149.012 72.5032C147.367 77.8424 145.385 83.0974 144.698 88.6895C144.241 92.3975 144.207 96.1007 145.079 99.7676C145.31 100.739 145.626 101.68 146.045 102.587C148.239 107.33 152.732 108.842 157.312 106.316C160.93 104.319 163.298 101.224 164.872 97.4594C165.181 96.7208 165.16 96.0405 164.917 95.2777C161.3 83.957 157.709 72.6282 154.11 61.302C153.608 59.7248 153.098 58.1508 152.592 56.5753Z" fill="#BE3427"/>
<path d="M245.517 55.2782C245.244 55.071 245.218 55.3671 245.124 55.4833C244.277 56.5288 243.136 56.7744 241.92 56.4848C240.651 56.1825 239.693 55.4176 239.364 54.0709C238.524 50.6383 237.506 47.2774 235.693 44.2037C233.115 39.8312 229.176 37.5366 224.287 36.6926C221.656 36.2382 219.001 35.954 216.332 36.1528C214.637 36.279 214.254 36.7925 214.254 38.4817C214.252 52.0347 214.253 65.5876 214.252 79.1406C214.252 91.2117 214.253 103.283 214.252 115.354C214.252 117.05 213.604 117.817 211.9 117.839C208.02 117.89 204.139 117.869 200.259 117.842C199.761 117.839 199.25 117.672 198.772 117.505C197.983 117.231 197.603 116.7 197.604 115.797C197.621 88.7446 197.617 61.6924 197.619 34.6404C197.619 33.3346 198.213 32.6499 199.507 32.4704C199.959 32.4076 200.42 32.3833 200.876 32.3829C214.592 32.3677 228.309 32.3565 242.025 32.3508C242.562 32.3507 243.103 32.3772 243.635 32.4469C244.959 32.6203 245.357 33.0821 245.358 34.4073C245.361 40.9547 245.357 47.5023 245.367 54.0497C245.368 54.3505 245.224 54.6947 245.517 54.9548C245.517 55.0626 245.517 55.1703 245.517 55.2782Z" fill="#BE3427"/>
<path d="M99.0026 77.5282C99.0026 76.9427 99.0026 76.594 99.0026 76.2451C99.0026 62.4748 99.0025 48.7044 99.0033 34.9342C99.0033 34.611 98.9884 34.285 99.023 33.9649C99.1261 33.0106 99.5558 32.592 100.52 32.4708C100.574 32.4642 100.628 32.4598 100.681 32.4582C105.045 32.3225 109.41 32.312 113.773 32.4631C115.24 32.5139 115.654 33.0473 115.654 34.5065C115.655 61.5621 115.655 88.6176 115.654 115.673C115.654 117.048 115.28 117.516 113.946 117.772C113.579 117.843 113.197 117.856 112.822 117.857C109.183 117.863 105.545 117.859 101.906 117.863C101.446 117.863 100.994 117.833 100.547 117.713C99.4727 117.424 99.0201 116.866 99.0054 115.748C98.9936 114.858 99.0026 113.969 99.0026 113.08C99.0026 104.322 98.9792 95.5636 99.0229 86.8058C99.0313 85.1165 98.4401 83.7736 97.3083 82.6039C95.3147 80.5435 92.8223 79.2811 90.2108 78.2278C85.8888 76.4846 81.3732 75.5343 76.7576 75.0002C73.9714 74.6779 71.1791 74.5171 68.3737 74.5121C66.5831 74.5088 65.6719 73.5407 65.6719 71.7645C65.6719 59.5033 65.6718 47.242 65.6721 34.9807C65.6721 33.5204 66.4559 32.6253 67.9112 32.4459C68.3109 32.3966 68.7171 32.3822 69.1203 32.3815C72.4084 32.3765 75.6965 32.3765 78.9844 32.3817C79.3875 32.3824 79.7938 32.3982 80.1929 32.4508C81.6189 32.6387 82.3312 33.4572 82.3314 34.8919C82.3325 46.3178 82.3476 57.7437 82.3084 69.1694C82.3044 70.3321 82.789 70.9873 83.7469 71.4352C85.4161 72.2158 87.2164 72.5783 88.981 73.0506C90.5142 73.4612 92.0483 73.8673 93.5414 74.4082C95.4708 75.1073 97.285 76.022 99.0026 77.5282Z" fill="#BE3427"/>
<path d="M126.203 37.3367C126.149 40.3064 124.728 42.7021 123.678 45.2051C122.029 49.1384 121.16 53.1871 121.477 57.4605C121.51 57.9134 121.567 58.3647 121.571 58.8254C120.977 57.1212 120.606 55.362 120.261 53.5966C119.343 48.8953 119.024 44.1537 119.407 39.3777C119.814 34.2886 121.03 29.3694 122.666 24.5473C123.735 21.3983 124.862 18.2686 125.887 15.1058C127.504 10.1195 128.205 5.10553 126.098 0C126.415 0.358604 126.736 0.713811 127.047 1.07662C127.363 1.44428 127.674 1.81631 127.981 2.19157C132.874 8.17316 137.142 14.5378 139.978 21.7786C142.183 27.4087 143.267 33.2342 142.943 39.289C142.639 44.9634 141.369 50.4373 139.507 55.7951C137.321 62.0826 134.683 68.1954 132.394 74.4419C131.739 76.2289 131.16 78.0438 130.546 79.8457C130.472 80.062 130.396 80.2776 130.267 80.4764C130.274 78.205 130.544 75.9729 130.935 73.7525C131.671 69.5741 132.563 65.4236 133.078 61.2057C134.16 52.334 131.89 44.4298 126.203 37.3367Z" fill="#0D89C3"/>
</svg>
