<svg width="100" height="94" viewBox="0 0 100 94" fill="none" xmlns="http://www.w3.org/2000/svg">
<path d="M48.5065 66.2857V92M48.5065 66.2857C52.7024 66.2857 56.1039 69.6872 56.1039 73.8831V92H40.9091V73.8831C40.9091 69.6872 44.3106 66.2857 48.5065 66.2857ZM67.7922 92V2H29.2208V92M67.7922 92H29.2208M67.7922 92L67.7922 84.987M67.7922 92H87.6623V84.987H67.7922M29.2208 92L29.2208 84.987M29.2208 92H9.35065V84.987H29.2208M29.2208 19.5325V10.1818H4.67532V19.5325H29.2208ZM29.2208 19.5325L9.35065 19.5325V26.5455H29.2208M29.2208 19.5325V26.5455M67.7922 19.5325V10.1818H92.3377V19.5325H67.7922ZM67.7922 19.5325L87.6623 19.5325V26.5455H67.7922M67.7922 19.5325V26.5455M29.2208 26.5455H4.67532V35.8961L29.2208 35.8961M29.2208 26.5455V35.8961M67.7922 26.5455H92.3377V35.8961L67.7922 35.8961M67.7922 26.5455V35.8961M29.2208 35.8961H9.35065V42.9091H29.2208M29.2208 35.8961V42.9091M29.2208 42.9091L4.67532 42.9091V52.2597H29.2208M29.2208 42.9091V52.2597M67.7922 35.8961H87.6623V42.9091H67.7922M67.7922 35.8961V42.9091M67.7922 42.9091L92.3377 42.9091V52.2597H67.7922M67.7922 42.9091V52.2597M29.2208 52.2597H9.35065V59.2727H29.2208M29.2208 52.2597V59.2727M29.2208 59.2727H4.67532V68.6234H29.2208M29.2208 59.2727V68.6234M67.7922 52.2597H87.6623V59.2727H67.7922M67.7922 52.2597V59.2727M67.7922 59.2727H92.3377V68.6234H67.7922M67.7922 59.2727V68.6234M29.2208 68.6234H9.35065V75.6364H29.2208M29.2208 68.6234V75.6364M29.2208 75.6364L4.67532 75.6364V84.987H29.2208M29.2208 75.6364V84.987M67.7922 68.6234H87.6623V75.6364H67.7922M67.7922 68.6234V75.6364M67.7922 75.6364L92.3377 75.6364V84.987H67.7922M67.7922 75.6364V84.987M0 92H98.1818M48.2385 13.1039C43.5896 19.5325 37.0811 32.3896 48.2385 32.3896M48.7738 13.1038C53.4227 19.5324 59.9312 32.3895 48.7738 32.3895" stroke="white" stroke-width="3" stroke-linecap="round" stroke-linejoin="round"/>
</svg>
