<svg width="70" height="84" viewBox="0 0 80 94" fill="none" xmlns="http://www.w3.org/2000/svg">
<path d="M56.8909 28.295L55.2703 40.762C54.8265 43.2981 46.9473 50.891 46.9473 50.891C45.024 52.6026 42.5841 53.542 40.0619 53.542C37.5397 53.542 35.1 52.6025 33.1767 50.8909C33.1767 50.8909 25.2975 43.298 24.8538 40.7618L23.1602 27.7333M56.8909 28.295C62.705 14.1935 51.5387 9.45869 51.5387 9.45869M56.8909 28.295C50.4498 25.9099 49.4177 17.5665 49.4177 17.5665M39.9892 91.6311C45.6033 91.6311 66 91.6311 78.0507 91.6311V72.4175C78.0507 68.1383 75.6889 64.2083 71.9105 62.1999L53.4282 52.3747C53.4282 52.3747 51.2985 55.767 45.8074 57.2581L40.0802 64.427H39.9705L34.2432 57.2581C28.7527 55.767 26.6224 52.3747 26.6224 52.3747L8.14015 62.1999C4.36182 64.2083 2 68.1383 2 72.4175V91.6311C20.2773 91.6311 34.6669 91.6311 40.0615 91.6311M62.4215 26.5863L62.5399 26.6108C67.0372 27.5374 69.9082 31.9625 68.9209 36.447C67.9522 40.847 63.6269 43.6521 59.2141 42.7417L59.0088 42.6992C59.0088 42.6992 60.1431 36.4809 61.6435 28.295C66.8273 0.0242405 41.2281 1.64835 40.0617 1.64835C38.8954 1.64835 13.4087 0.0242405 18.5925 28.295C20.0929 36.4809 21.2278 42.6992 21.2278 42.6992L21.0225 42.7417C16.6097 43.6521 12.2849 40.8476 11.3157 36.447C10.3284 31.9625 13.1993 27.5374 17.6967 26.6108L17.8151 26.5863M20.2773 37.4961L21.4395 43.4403C21.7428 44.9921 23.1027 46.1118 24.6843 46.1118H34.3164M50.0933 16.6544C50.0933 16.6544 46.5856 23.3999 28.3727 25.6935C29.7216 24.0747 30.3963 21.174 30.3963 21.174C30.3963 21.174 27.7791 25.3658 22.1398 28.2956C19.1989 21.1069 21.4919 12.4819 27.7796 8.34024C36.4362 2.63804 51.4422 5.45707 51.6364 10.0028C52.5508 10.8251 51.8667 14.6536 50.0933 16.6544ZM43.487 43.9576H36.5636C35.374 43.9576 34.4094 44.9222 34.4094 46.1118C34.4094 47.3015 35.374 48.266 36.5636 48.266H43.487C44.6766 48.266 45.6406 47.3015 45.6406 46.1118C45.6412 44.9222 44.6766 43.9576 43.487 43.9576Z" stroke="white" stroke-width="3" stroke-miterlimit="10" stroke-linecap="round" stroke-linejoin="round"/>
</svg>
