<svg width="68" height="74" viewBox="0 0 68 74" fill="none" xmlns="http://www.w3.org/2000/svg">
<path d="M66 42.5263H2M34 6.91228V2M34 72V58.4912M66 72H2M5.69231 42.5263H62.3077V72H5.69231V42.5263ZM41.3846 49.8947H43.8462V52.3509H41.3846V49.8947ZM52.4615 49.8947H54.9231V62.1754H52.4615V49.8947ZM13.0769 49.8947H15.5385V62.1754H13.0769V49.8947ZM32.7692 49.8947H35.2308V52.3509H32.7692V49.8947ZM37.6923 24.1053H40.1538V26.5614H37.6923V24.1053ZM37.6923 32.7018H40.1538V35.1579H37.6923V32.7018ZM24.1538 49.8947H26.6154V52.3509H24.1538V49.8947ZM27.8462 24.1053H30.3077V26.5614H27.8462V24.1053ZM27.8462 32.7018H30.3077V35.1579H27.8462V32.7018ZM24.1538 58.4912H43.8462V72H24.1538V58.4912ZM19.2308 16.7368H48.7692V42.5263H19.2308V16.7368ZM24.1538 6.91228H43.8462V16.7368H24.1538V6.91228Z" stroke="#11B6CA" stroke-width="3" stroke-linecap="round" stroke-linejoin="round"/>
</svg>
