<svg width="372" height="120" viewBox="0 0 372 120" fill="none" xmlns="http://www.w3.org/2000/svg">
<path d="M154.754 31.584H165.585C168.149 31.584 170.212 32.3637 171.774 33.9228C173.335 35.4819 174.116 37.5419 174.116 40.1028C174.116 42.275 173.481 44.1468 172.213 45.7195C170.944 47.2928 169.418 48.0934 167.634 48.121C168.08 48.4828 168.485 48.8859 168.847 49.3316C169.878 50.6404 172.206 54.3989 175.831 60.6062H168.931C167.954 58.9334 167.049 57.3443 166.212 55.8389C164.707 53.1353 163.675 51.3507 163.118 50.4862C162.476 49.5389 161.905 48.9534 161.403 48.7298C161.096 48.5907 160.79 48.5071 160.483 48.4792V60.6059H154.754V31.584H154.754ZM160.483 36.2259V44.0877H162.448C164.678 44.0877 166.156 43.7531 166.881 43.0837C167.606 42.4147 167.968 41.4528 167.968 40.1986C167.968 38.5819 167.425 37.4801 166.338 36.895C165.557 36.4492 164.302 36.2259 162.574 36.2259H160.483Z" fill="black"/>
<path d="M190.8 31.166C194.675 31.166 197.728 32.4835 199.959 35.1178C202.189 37.7523 203.304 41.356 203.304 45.9278C203.304 52.7587 201.143 57.3587 196.822 59.7278C195.177 60.6196 193.24 61.066 191.009 61.066C186.827 61.066 183.677 59.7005 181.558 56.9681C179.328 54.0969 178.213 50.5005 178.213 46.179C178.213 43.029 178.784 40.262 179.927 37.8781C181.07 35.4944 182.687 33.7314 184.778 32.5881C186.507 31.6402 188.514 31.166 190.8 31.166ZM190.717 35.6823C188.626 35.6823 187.12 36.5332 186.2 38.2332C185.224 40.0457 184.737 42.6941 184.737 46.1787C184.737 51.1972 185.601 54.3332 187.33 55.5881C188.25 56.2572 189.407 56.5917 190.801 56.5917C192.835 56.5917 194.306 55.7696 195.213 54.1244C196.118 52.4796 196.572 49.8032 196.572 46.0954C196.572 43.2241 196.321 40.9796 195.819 39.3626C195.54 38.4426 195.024 37.6481 194.272 36.979C193.295 36.115 192.11 35.6823 190.717 35.6823Z" fill="black"/>
<path d="M208.072 31.584H214.052V55.7553H224.465L223.42 60.6059H208.072V31.584Z" fill="black"/>
<path d="M246.963 33.5914L244.203 37.7735C241.75 36.2959 239.492 35.5572 237.429 35.5572C236.23 35.5572 235.254 35.8708 234.502 36.4981C233.749 37.125 233.372 37.9272 233.372 38.9026C233.372 39.6553 233.609 40.2478 234.084 40.6799C234.557 41.1126 235.394 41.495 236.592 41.8299L240.105 42.7917C245.012 44.1299 247.465 47.0153 247.465 51.4481C247.465 54.4032 246.371 56.7732 244.182 58.5572C241.994 60.3417 239.087 61.2335 235.464 61.2335C231.923 61.2335 228.619 60.3553 225.553 58.599L227.727 54.0408C230.71 55.6023 233.373 56.3826 235.715 56.3826C239.115 56.3826 240.816 55.059 240.816 52.4102C240.816 50.5984 239.547 49.3438 237.011 48.6466L233.791 47.7684C231.003 47.0159 229.093 45.7893 228.062 44.0884C227.253 42.7502 226.849 41.2726 226.849 39.6556C226.849 37.0075 227.817 34.8466 229.755 33.1735C231.693 31.5008 234.195 30.6647 237.262 30.6647C241.025 30.6644 244.259 31.6402 246.963 33.5914Z" fill="black"/>
<path d="M154.754 70.8569H160.859V99.8788H154.754V70.8569V70.8569Z" fill="black"/>
<path d="M186.575 72.8643L183.815 77.0464C181.361 75.5688 179.103 74.83 177.04 74.83C175.841 74.83 174.866 75.1437 174.113 75.771C173.36 76.3979 172.984 77.2 172.984 78.1755C172.984 78.9282 173.22 79.5206 173.695 79.9528C174.169 80.3855 175.005 80.7679 176.204 81.1028L179.717 82.0646C184.623 83.4028 187.076 86.2882 187.076 90.721C187.076 93.6761 185.982 96.0461 183.794 97.83C181.605 99.6146 178.699 100.506 175.075 100.506C171.534 100.506 168.23 99.6282 165.164 97.8719L167.339 93.3137C170.322 94.8752 172.984 95.6555 175.326 95.6555C178.727 95.6555 180.428 94.3319 180.428 91.6831C180.428 89.8713 179.159 88.6167 176.622 87.9194L173.402 87.0413C170.614 86.2888 168.704 85.0622 167.673 83.3613C166.864 82.0231 166.46 80.5455 166.46 78.9285C166.46 76.2803 167.429 74.1194 169.367 72.4464C171.304 70.7737 173.806 69.9376 176.873 69.9376C180.636 69.937 183.87 70.9131 186.575 72.8643Z" fill="black"/>
<path d="M202.968 70.4388C206.843 70.4388 209.896 71.7564 212.127 74.3907C214.357 77.0252 215.472 80.6288 215.472 85.2007C215.472 92.0316 213.311 96.6316 208.99 99.0007C207.345 99.8925 205.408 100.339 203.177 100.339C198.995 100.339 195.845 98.9734 193.726 96.241C191.496 93.3698 190.381 89.7734 190.381 85.4519C190.381 82.3019 190.952 79.5349 192.095 77.151C193.238 74.7673 194.855 73.0043 196.946 71.861C198.675 70.9131 200.682 70.4388 202.968 70.4388ZM202.885 74.9552C200.794 74.9552 199.288 75.8061 198.368 77.5061C197.392 79.3185 196.905 81.967 196.905 85.4516C196.905 90.4701 197.769 93.6061 199.498 94.861C200.418 95.53 201.574 95.8646 202.969 95.8646C205.003 95.8646 206.474 95.0425 207.381 93.3973C208.286 91.7525 208.74 89.0761 208.74 85.3682C208.74 82.497 208.489 80.2525 207.987 78.6355C207.708 77.7155 207.192 76.921 206.44 76.2519C205.463 75.3879 204.278 74.9552 202.885 74.9552Z" fill="black"/>
<path d="M222.083 70.8569H229.569L233.374 85.3778C233.82 87.0472 234.154 88.5775 234.378 89.9678C234.629 88.4381 234.977 86.8669 235.423 85.2527L239.354 70.8566H246.798L249.391 99.8784H243.662L242.574 84.3639C242.434 82.3848 242.365 80.7675 242.365 79.513C242.058 81.0745 241.696 82.5657 241.278 83.9875L236.678 99.8784H231.702L227.562 84.6148C227.06 82.7475 226.669 81.033 226.391 79.4712C226.391 80.8375 226.321 82.58 226.182 84.6984L225.178 99.8784H219.365L222.083 70.8569Z" fill="black"/>
<path d="M261.22 70.7316H267.534L276.693 99.8789H270.42L268.371 92.9789H259.84L257.791 99.8789H251.686L261.22 70.7316ZM261.262 88.128H266.949C266.614 87.1244 266.084 85.1734 265.36 82.2737C265.164 81.4371 264.774 79.7228 264.189 77.1298L262.809 82.7334C262.307 84.7131 261.791 86.5116 261.262 88.128Z" fill="black"/>
<path d="M279.83 70.8569H290.661C293.226 70.8569 295.289 71.6366 296.85 73.1957C298.411 74.7548 299.192 76.8148 299.192 79.3757C299.192 81.5478 298.558 83.4197 297.289 84.9924C296.02 86.5657 294.494 87.3663 292.71 87.3939C293.156 87.7557 293.561 88.1587 293.923 88.6045C294.954 89.9133 297.282 93.6718 300.907 99.8791H294.007C293.03 98.2063 292.125 96.6172 291.289 95.1118C289.783 92.4081 288.751 90.6236 288.194 89.7591C287.552 88.8118 286.981 88.2263 286.479 88.0027C286.172 87.8636 285.866 87.78 285.559 87.7521V99.8794H279.83V70.8569H279.83ZM285.559 75.4987V83.3606H287.525C289.755 83.3606 291.232 83.026 291.957 82.3566C292.682 81.6875 293.045 80.7257 293.045 79.4715C293.045 77.8548 292.501 76.753 291.414 76.1678C290.633 75.7221 289.378 75.4987 287.65 75.4987H285.559Z" fill="black"/>
<path d="M305.211 70.8569H311.191V84.0715L319.471 70.8569H326.664L317.38 84.303L327.709 99.8788H320.015L311.191 84.6988V99.8788H305.211V70.8569H305.211Z" fill="black"/>
<path d="M330.93 70.8569H347.49L346.737 75.5827H336.785V82.3154H345.106V87.0827H336.868V94.8609H347.866V99.8791H330.93V70.8569H330.93Z" fill="black"/>
<path d="M350.504 70.8569H371.455L370.493 75.666H363.551V99.8788H357.613V75.666H350.504V70.8569Z" fill="black"/>
<path d="M92.371 40.5285L92.3471 40.5327C93.0634 41.7203 93.7152 42.9509 94.2995 44.2191C94.2995 42.5445 94.2531 40.7273 94.1498 38.7467C93.3174 22.7973 86.7486 10.9648 81.5628 3.99515C74.8707 1.41697 67.6013 0 60.0001 0C56.2828 0 52.6452 0.340606 49.1152 0.987576C83.1749 15.3291 92.371 40.5285 92.371 40.5285Z" fill="#FCB216"/>
<path d="M116.381 80.5709C118.723 74.1545 120.001 67.2266 120.001 59.9999C120.001 56.7554 119.74 53.5721 119.244 50.4669C106.962 76.4948 89.0687 87.7945 79.8205 92.1309C78.6296 92.8669 77.395 93.5387 76.1211 94.1412C96.4184 94.4648 110.708 85.0796 116.381 80.5709Z" fill="#FEE44C"/>
<path d="M40.8821 27.4464C41.9064 26.8437 42.9615 26.2879 44.0445 25.7819C41.8318 25.7931 39.3382 25.9025 36.5203 26.1361C21.9655 27.3425 10.9991 33.2379 4.02303 38.3643C1.42697 45.0767 0 52.3713 0 60C0 63.7025 0.337576 67.3255 0.979697 70.8428C14.9597 37.8252 39.0588 28.1391 40.8821 27.4464Z" fill="#ED2024"/>
<path d="M66.5703 22.8222C68.9267 23.2358 71.207 23.8694 73.3912 24.6982C72.0085 23.3279 70.4318 21.8622 68.6288 20.2913C56.8276 10.0116 44.0397 6.44036 35.4246 5.24884C25.3294 9.78732 16.7185 17.0367 10.5137 26.0685C39.7867 14.1819 61.7155 21.007 66.5703 22.8222Z" fill="#ED2024"/>
<path d="M96.9051 67.9715C96.5091 69.8142 95.9785 71.6066 95.3239 73.3388C95.5658 73.1106 95.8082 72.8809 96.0548 72.6439C109.886 59.3618 113.819 43.7079 114.937 35.846C110.462 25.6818 103.25 16.9966 94.2324 10.7212C105.709 39.7779 99.3142 61.5945 96.9051 67.9715Z" fill="#FCB216"/>
<path d="M51.718 96.8355C50.0662 96.4658 48.4547 95.9885 46.8926 95.41C46.9162 95.4348 46.9386 95.4585 46.9623 95.4833C61.0147 110.117 77.722 113.67 85.0471 114.533C94.7617 110.064 103.077 103.076 109.157 94.4048C82.4862 104.336 61.9132 100.297 51.718 96.8355Z" fill="#FEE44C"/>
<path d="M27.3019 78.8749C26.6286 77.711 26.0167 76.507 25.4683 75.2686C25.4683 75.2704 25.4683 75.2722 25.4683 75.274C25.0386 96.4834 35.2267 111.179 39.5219 116.413C45.9119 118.733 52.8074 120 59.9992 120C63.4555 120 66.8425 119.704 70.1389 119.143C43.0337 106.684 31.558 88.1213 27.3019 78.8749Z" fill="#991C1F"/>
<path d="M24.388 46.9358C23.198 48.1473 21.9386 49.4985 20.6035 51.0112C10.0423 62.9743 6.44802 76.0109 5.26953 84.6185C9.68862 94.4285 16.668 102.836 25.3559 108.991C13.555 77.6694 21.0329 54.687 24.388 46.9358Z" fill="#991C1F"/>
</svg>
