<svg width="87" height="64" viewBox="0 0 87 64" fill="none" xmlns="http://www.w3.org/2000/svg">
<path d="M52.5882 25.1723L56.9434 20.817V13.1674C56.9434 6.9998 61.9432 2 68.1108 2H77.3239C81.6412 2 85.141 5.49986 85.141 9.81715V10.7105H70.5676V20.817H85.141V21.487C85.141 25.1876 82.1411 28.1875 78.4406 28.1875H63.3088L53.7049 37.7914M33.3245 58.3393L31.0631 60.6007C29.1974 62.4664 26.1725 62.4664 24.3068 60.6007C22.4411 58.735 22.4411 55.7102 24.3068 53.8445L26.5682 51.5831M17.2434 5.74107L28.7458 17.2434H43.0249C46.5067 17.2434 49.6712 19.2662 51.1331 22.4262L52.9861 26.4314C54.6139 29.9499 52.925 34.1114 49.3055 35.5004L36.0605 40.5832L35.717 39.8194C34.1432 36.3189 35.8255 32.2143 39.4034 30.8254L46.0552 28.2433M2 20.5937L12.609 31.3702V33.8178C12.609 36.1836 13.5474 38.4528 15.2183 40.1276L34.0797 59.033C35.4507 60.4072 37.6766 60.4085 39.0492 59.0359C40.4207 57.6644 40.4207 55.4408 39.0492 54.0693L30.0301 45.0502C28.6732 43.6933 26.4733 43.6933 25.1164 45.0502C23.7596 46.407 23.7596 48.607 25.1164 49.9638L25.8423 50.6897M37.9031 26.2332C38.8151 27.2569 41.5995 29.1367 45.441 28.4666M37.1214 41.8928L46.2172 50.9886C47.6427 52.4141 49.954 52.4141 51.3795 50.9886C52.805 49.5631 52.805 47.2518 51.3795 45.8263L43.3446 37.7914M50.7709 34.9437L55.8464 40.0193C57.272 41.4448 57.272 43.7561 55.8464 45.1816C54.4209 46.6071 52.1097 46.6071 50.6841 45.1816L43.3192 37.8167M63.4205 28.1875L70.7351 20.8728M61.522 10.7105H66.1565M61.522 14.2283H66.1565M61.522 17.746H66.1565M45.5725 55.4872C44.1469 56.9127 41.8357 56.9127 40.4102 55.4872L31.3828 46.4598C29.9573 45.0343 29.9573 42.7231 31.3828 41.2975C32.8084 39.872 35.1196 39.872 36.5451 41.2975L45.5725 50.3249C46.998 51.7504 46.998 54.0617 45.5725 55.4872Z" stroke="#11B6CA" stroke-width="3" stroke-linecap="round" stroke-linejoin="round"/>
</svg>
