<svg width="78" height="94" viewBox="0 0 78 94" fill="none" xmlns="http://www.w3.org/2000/svg">
<path d="M54.8909 28.6639L53.2703 41.1309C52.8265 43.667 44.9473 51.2599 44.9473 51.2599C43.024 52.9715 40.5841 53.9109 38.0619 53.9109C35.5397 53.9109 33.1 52.9714 31.1767 51.2598C31.1767 51.2598 23.2975 43.6669 22.8538 41.1307L21.1602 28.1022M54.8909 28.6639C60.705 14.5624 49.5387 9.82759 49.5387 9.82759M54.8909 28.6639C48.4498 26.2788 47.4177 17.9353 47.4177 17.9353M37.9892 92C43.6033 92 64 92 76.0507 92V72.7864C76.0507 68.5072 73.6889 64.5772 69.9105 62.5688L51.4282 52.7436C51.4282 52.7436 49.2985 56.1359 43.8074 57.627L38.0802 64.7959H37.9705L32.2432 57.627C26.7527 56.1359 24.6224 52.7436 24.6224 52.7436L6.14015 62.5688C2.36182 64.5772 0 68.5072 0 72.7864V92C18.2773 92 32.6669 92 38.0615 92M60.4215 26.9552L60.5399 26.9797C65.0372 27.9063 67.9082 32.3314 66.9209 36.8159C65.9522 41.2159 61.6269 44.0209 57.2141 43.1106L57.0088 43.0681C57.0088 43.0681 58.1431 36.8498 59.6435 28.6639C64.8273 0.393137 39.2281 2.01725 38.0617 2.01725C36.8954 2.01725 11.4087 0.393137 16.5925 28.6639C18.0929 36.8498 19.2278 43.0681 19.2278 43.0681L19.0225 43.1106C14.6097 44.0209 10.2849 41.2165 9.31571 36.8159C8.32841 32.3314 11.1993 27.9063 15.6967 26.9797L15.8151 26.9552M18.2773 37.865L19.4395 43.8092C19.7428 45.361 21.1027 46.4807 22.6843 46.4807H32.3164M48.0933 17.0233C48.0933 17.0233 44.5856 23.7688 26.3727 26.0624C27.7216 24.4435 28.3963 21.5429 28.3963 21.5429C28.3963 21.5429 25.7791 25.7347 20.1398 28.6645C17.1989 21.4758 19.4919 12.8508 25.7796 8.70914C34.4362 3.00694 49.4422 5.82596 49.6364 10.3717C50.5508 11.194 49.8667 15.0225 48.0933 17.0233ZM41.487 44.3265H34.5636C33.374 44.3265 32.4094 45.2911 32.4094 46.4807C32.4094 47.6704 33.374 48.6349 34.5636 48.6349H41.487C42.6766 48.6349 43.6406 47.6704 43.6406 46.4807C43.6412 45.2911 42.6766 44.3265 41.487 44.3265Z" stroke="#fff" stroke-width="3" stroke-miterlimit="10" stroke-linecap="round" stroke-linejoin="round"/>
</svg>
