<svg width="75" height="69" viewBox="0 0 75 69" fill="white" xmlns="http://www.w3.org/2000/svg" >
<path d="M37.0325 48.4286V67M37.0325 48.4286C40.0629 48.4286 42.5195 50.8852 42.5195 53.9156V67H31.5455V53.9156C31.5455 50.8852 34.0021 48.4286 37.0325 48.4286ZM50.961 67V2H23.1039V67M50.961 67H23.1039M50.961 67L50.961 61.9351M50.961 67H65.3117V61.9351H50.961M23.1039 67L23.1039 61.9351M23.1039 67H8.75325V61.9351H23.1039M23.1039 14.6623V7.90909H5.37662V14.6623H23.1039ZM23.1039 14.6623L8.75325 14.6623V19.7273H23.1039M23.1039 14.6623V19.7273M50.961 14.6623V7.90909H68.6883V14.6623H50.961ZM50.961 14.6623L65.3117 14.6623V19.7273H50.961M50.961 14.6623V19.7273M23.1039 19.7273H5.37662V26.4805L23.1039 26.4805M23.1039 19.7273V26.4805M50.961 19.7273H68.6883V26.4805L50.961 26.4805M50.961 19.7273V26.4805M23.1039 26.4805H8.75325V31.5455H23.1039M23.1039 26.4805V31.5455M23.1039 31.5455L5.37662 31.5455V38.2987H23.1039M23.1039 31.5455V38.2987M50.961 26.4805H65.3117V31.5455H50.961M50.961 26.4805V31.5455M50.961 31.5455L68.6883 31.5455V38.2987H50.961M50.961 31.5455V38.2987M23.1039 38.2987H8.75325V43.3636H23.1039M23.1039 38.2987V43.3636M23.1039 43.3636H5.37662V50.1169H23.1039M23.1039 43.3636V50.1169M50.961 38.2987H65.3117V43.3636H50.961M50.961 38.2987V43.3636M50.961 43.3636H68.6883V50.1169H50.961M50.961 43.3636V50.1169M23.1039 50.1169H8.75325V55.1818H23.1039M23.1039 50.1169V55.1818M23.1039 55.1818L5.37662 55.1818V61.9351H23.1039M23.1039 55.1818V61.9351M50.961 50.1169H65.3117V55.1818H50.961M50.961 50.1169V55.1818M50.961 55.1818L68.6883 55.1818V61.9351H50.961M50.961 55.1818V61.9351M2 67H72.9091M36.8389 10.0195C33.4814 14.6623 28.7808 23.9481 36.8389 23.9481M37.2255 10.0194C40.5831 14.6623 45.2837 23.948 37.2255 23.948" stroke="#11B6CA" stroke-width="3" stroke-linecap="round" stroke-linejoin="round"/>
</svg>
