<svg width="75" height="69" viewBox="0 0 75 69" fill="none" xmlns="http://www.w3.org/2000/svg">
<path d="M21 21V15H7V21M21 21H7M21 21V28M7 21V28M25 15H50M25 15V21M25 15V9M50 15V21M50 15V9M50 21H25M50 21V28M25 21V28M21 28H7M21 28V34M7 28V34M50 28H25M50 28H68V34M50 28V34M25 28V34M50 9V2H25V9M50 9H25M21 34H7M21 34V41M7 34V41M68 34H50M68 34V41M50 34H25M50 34V41M25 34V41M21 41H7M21 41V47M7 41V47M68 41H50M68 41V47M50 41H25M50 41V47M25 41V47M21 47H7M21 47V54M7 47V54M68 47H50M68 47V54M50 47H25M50 47V54M25 47V54M21 54H7M21 54V60M7 54V60M68 54H50M68 54V60M50 54H25M50 54V60M25 54V60M21 60H7M21 60V67H7V60M68 60H50M68 60V67H50M50 60H25M50 60V67M25 60V67H50M2 67H72.9091" stroke="#11B6CA" stroke-width="3" stroke-linecap="round" stroke-linejoin="round"/>
</svg>
